<?xml version="1.0" encoding="UTF-8"?>
<svg width="68px" height="68px" viewBox="0 0 68 68" version="1.1" xmlns="http://www.w3.org/2000/svg" xmlns:xlink="http://www.w3.org/1999/xlink">
    <!-- Generator: Sketch 52.6 (67491) - http://www.bohemiancoding.com/sketch -->
    <title>Group 4</title>
    <desc>Created with Sketch.</desc>
    <g id="Page-1" stroke="none" stroke-width="1" fill="none" fill-rule="evenodd">
        <g id="Apple-TV" transform="translate(-918.000000, -1563.000000)" fill="#CD4545">
            <g id="Group-4" transform="translate(918.000000, 1563.000000)">
                <circle id="Oval-Copy-3" fill-opacity="0.166921422" cx="34" cy="34" r="34"></circle>
                <g id="analysis" transform="translate(19.000000, 19.000000)" fill-rule="nonzero">
                    <path d="M13.5,3 C7.701,3 3,7.701 3,13.5 C3,19.299 7.701,24 13.5,24 C19.299,24 24,19.299 24,13.5 C23.9936875,7.703625 19.296375,3.0063125 13.5,3 Z M13.5,4 C16.5885,4.0024375 19.4826875,5.5076875 21.258,8.035 L20.008,9.285 C19.7038125,9.1009375 19.3555625,9.0024375 19,9 C17.8954375,9 17,9.8954375 17,11 C17.00175,11.3559375 17.0996875,11.70475 17.2835,12.0095 L14.0095,15.2835 C13.3895625,14.9055 12.6104375,14.9055 11.9905,15.2835 L9.7165,13.0095 C9.9003125,12.70475 9.99825,12.3559375 10,12 C10.001375,10.897625 9.108875,10.002875 8.0065,10.0015 C7.0948125,10.000375 6.29825,10.6170625 6.071,11.5 L4.216,11.5 C5.1626875,7.1283125 9.027,4.0065625 13.5,4 Z M20,11 C20,11.5523125 19.5523125,12 19,12 C18.4476875,12 18,11.5523125 18,11 C18,10.4476875 18.4476875,10 19,10 C19.5523125,10 20,10.4476875 20,11 Z M14,17 C14,17.5523125 13.5523125,18 13,18 C12.4476875,18 12,17.5523125 12,17 C12,16.4476875 12.4476875,16 13,16 C13.5523125,16 14,16.4476875 14,17 Z M9,12 C9,12.5523125 8.5523125,13 8,13 C7.4476875,13 7,12.5523125 7,12 C7,11.4476875 7.4476875,11 8,11 C8.5523125,11 9,11.4476875 9,12 Z M18.115875,21.806625 C16.703875,22.590625 15.115125,23.001375 13.5,22.9999375 C8.256875,23.0035 4.0035625,18.7560625 4,13.5129375 C3.99975,13.1745625 4.017625,12.836375 4.0535,12.4999375 L6.071,12.4999375 C6.2983125,13.38025 7.0908125,13.9965 8,13.9999375 C8.3559375,13.9981875 8.70475,13.90025 9.0095,13.7164375 L11.2835,15.9904375 C11.0996875,16.2951875 11.00175,16.644 11,16.9999375 C11,18.1045 11.8954375,18.9999375 13,18.9999375 C14.1045625,18.9999375 15,18.1045 15,16.9999375 C14.99825,16.644 14.9003125,16.2951875 14.7165,15.9904375 L17.9905,12.7164375 C18.29525,12.90025 18.6440625,12.9981875 19,12.9999375 C20.1045625,12.9999375 21,12.1045 21,10.9999375 C20.99825,10.644 20.9003125,10.2951875 20.7165,9.9904375 L21.8065,8.9009375 C24.3511875,13.4839375 22.6988125,19.262 18.115875,21.806625 Z" id="Shape"></path>
                    <path d="M25.8352884,5.16808992 C26.7744266,5.164538 27.5930334,4.52784002 27.8278341,3.61816078 L31,3.61816078 L31,2.58487469 L27.8278341,2.58487469 C27.5930334,1.67519545 26.7744266,1.03849748 25.8352884,1.03494556 C24.694339,1.03494556 23.7694037,1.96018867 23.7694037,3.10151774 C23.7712113,3.46930301 23.8723751,3.82972611 24.0622428,4.14462005 L23.154803,5.05236188 C18.8128945,-0.606235656 10.707396,-1.67245774 5.05068102,2.67089576 C-0.60603397,7.01424926 -1.67190134,15.1225098 2.67000719,20.7811073 C6.76846412,26.1223569 14.2812474,27.418033 19.93099,23.75794 L21.4897,25.3171687 L22.2199902,26.0477019 L26.3775831,30.2066785 C27.4349932,31.2644405 29.1492901,31.2644405 30.2067003,30.2066785 C31.2641104,29.1489164 31.2641104,27.434049 30.2067003,26.3762869 L26.0491074,22.2173104 L25.3188172,21.4867771 L23.7601072,19.9275484 C26.5270369,15.66421 26.5270369,10.1713257 23.7601072,5.90792276 L24.7930495,4.87463667 C25.107645,5.06463215 25.4678191,5.16602335 25.8352884,5.16808992 Z M25.8352884,2.06823165 C26.4057953,2.06823165 26.8682307,2.53082091 26.8682307,3.10151774 C26.8682307,3.67221456 26.4057953,4.13480383 25.8352884,4.13480383 C25.2647814,4.13480383 24.802346,3.67221456 24.802346,3.10151774 C24.802346,2.53082091 25.2648459,2.06823165 25.8352884,2.06823165 Z M29.4764101,27.1068202 C30.1378805,27.7536573 30.149953,28.8144546 29.5033311,29.4761452 C28.8567092,30.1378358 27.7962648,30.1499123 27.1347944,29.5030752 C27.1256916,29.4942277 27.1167824,29.485251 27.1078733,29.4761452 L22.9502804,25.3171687 L25.3188172,22.9478437 L29.4764101,27.1068202 Z M24.588527,22.2173104 L22.2199902,24.5866354 L20.790398,23.1565675 C20.8632204,23.10077 20.9313946,23.0392895 21.0031841,22.9819421 C21.0749736,22.9245947 21.1581255,22.8558812 21.2350797,22.7913008 C21.3481869,22.6962385 21.4597446,22.6001429 21.5692365,22.5014641 C21.6255319,22.4497998 21.6792449,22.3981355 21.7345073,22.3464712 C21.9462605,22.1480802 22.1512995,21.942973 22.3496245,21.7311493 C22.4012716,21.6758685 22.4529187,21.6221376 22.5045658,21.5658235 C22.6032118,21.4562952 22.6992754,21.3447003 22.7943061,21.2315555 C22.8590587,21.1550923 22.9225847,21.0777896 22.984884,20.9995828 C23.0416958,20.928286 23.1031559,20.8600891 23.1589348,20.7872425 L24.588527,22.2173104 Z M22.5856518,19.8175035 C22.4229634,20.0448264 22.2551102,20.2674996 22.0779606,20.4819064 C22.0263135,20.5444202 21.9710511,20.6048675 21.9178546,20.666348 C21.7598144,20.8502729 21.5966095,21.0287085 21.4282399,21.2015902 C21.354901,21.277343 21.2803355,21.3519333 21.2046079,21.4252966 C21.0324293,21.5937223 20.8541176,21.7569815 20.6695438,21.9150742 C20.6080837,21.9667385 20.5476566,22.0230526 20.4851636,22.0752336 C20.270828,22.2524421 20.0482289,22.4203511 19.8209816,22.5830937 C14.4744721,26.4039919 7.04380781,25.1657923 3.22418075,19.8175035 C-0.595446311,14.4692147 0.642341395,7.03607743 5.98885089,3.21517921 C11.3353604,-0.605719013 18.7660247,0.632416045 22.5856518,5.98076943 C25.5412226,10.1192094 25.5412226,15.6790635 22.5856518,19.8175035 Z" id="Shape"></path>
                </g>
            </g>
        </g>
    </g>
</svg>