<?xml version="1.0" encoding="UTF-8"?>
<svg width="149px" height="137px" viewBox="0 0 149 137" version="1.1" xmlns="http://www.w3.org/2000/svg" xmlns:xlink="http://www.w3.org/1999/xlink">
    <!-- Generator: Sketch 52.6 (67491) - http://www.bohemiancoding.com/sketch -->
    <title>buildings</title>
    <desc>Created with Sketch.</desc>
    <g id="Page-1" stroke="none" stroke-width="1" fill="none" fill-rule="evenodd">
        <g id="Apple-TV" transform="translate(-581.000000, -2213.000000)" fill="#CD4545">
            <g id="buildings" transform="translate(581.000000, 2213.000000)">
                <path d="M34.2,75 L31.8,75 C31.3604165,75 31,75.3835488 31,75.8513449 L31,123.148655 C31,123.616452 31.3604165,124 31.8,124 L34.2,124 C34.6395835,124 35,123.616452 35,123.148655 L35,75.8513449 C35,75.3835488 34.6395835,75 34.2,75 Z" id="Path"></path>
                <path d="M41.2,75 L38.8,75 C38.3604165,75 38,75.3835488 38,75.8513449 L38,123.148655 C38,123.616452 38.3604165,124 38.8,124 L41.2,124 C41.6395835,124 42,123.616452 42,123.148655 L42,75.8513449 C42,75.3835488 41.6395835,75 41.2,75 Z" id="Path"></path>
                <path d="M47.2,75 L44.8,75 C44.3604165,75 44,75.3835488 44,75.8513449 L44,123.148655 C44,123.61756 44.3604165,124 44.8,124 L47.2,124 C47.6395835,124 48,123.616452 48,123.148655 L48,75.8513449 C48,75.3835488 47.6395835,75 47.2,75 Z" id="Path"></path>
                <path d="M118.130435,58 L99.8695652,58 C99.3917571,58 99,58.3604165 99,58.8 L99,61.2 C99,61.6395835 99.3917571,62 99.8695652,62 L118.130435,62 C118.608243,62 119,61.6395835 119,61.2 L119,58.8 C119,58.3604165 118.608243,58 118.130435,58 Z" id="Path"></path>
                <path d="M118.130435,65 L99.8695652,65 C99.3917571,65 99,65.3604165 99,65.8 L99,68.2 C99,68.6395835 99.3917571,69 99.8695652,69 L118.130435,69 C118.608243,69 119,68.6395835 119,68.2 L119,65.8 C119,65.3604165 118.608243,65 118.130435,65 Z" id="Path"></path>
                <path d="M118.130435,71 L99.8695652,71 C99.3917571,71 99,71.3604165 99,71.8 L99,74.2 C99,74.6395835 99.3917571,75 99.8695652,75 L118.130435,75 C118.608243,75 119,74.6395835 119,74.2 L119,71.8 C119,71.3604165 118.608243,71 118.130435,71 Z" id="Path"></path>
                <path d="M118.130435,77 L99.8695652,77 C99.3917571,77 99,77.3604165 99,77.8 L99,80.2 C99,80.6395835 99.3917571,81 99.8695652,81 L118.130435,81 C118.608243,81 119,80.6395835 119,80.2 L119,77.8 C119,77.3604165 118.608243,77 118.130435,77 Z" id="Path"></path>
                <path d="M118.130435,84 L99.8695652,84 C99.3917571,84 99,84.3604165 99,84.8 L99,87.2 C99,87.6395835 99.3917571,88 99.8695652,88 L118.130435,88 C118.608243,88 119,87.6395835 119,87.2 L119,84.8 C119,84.3604165 118.608243,84 118.130435,84 Z" id="Path"></path>
                <path d="M118.130435,91 L99.8695652,91 C99.3917571,91 99,91.3604165 99,91.8 L99,94.2 C99,94.6395835 99.3917571,95 99.8695652,95 L118.130435,95 C118.608243,95 119,94.6395835 119,94.2 L119,91.8 C119,91.3604165 118.608243,91 118.130435,91 Z" id="Path"></path>
                <path d="M63.2,32 L60.8,32 C60.3604168,32 60,32.3914028 60,32.8687782 L60,38.1312218 C60,38.6085972 60.3604168,39 60.8,39 L63.2,39 C63.6406251,39 64,38.6085972 64,38.1312218 L64,32.8687782 C64,32.3914028 63.6406251,32 63.2,32 Z" id="Path"></path>
                <path d="M70.2,32 L67.8,32 C67.3593749,32 67,32.3914028 67,32.8687782 L67,38.1312218 C67,38.6085972 67.3593749,39 67.8,39 L70.2,39 C70.6395835,39 71,38.6085972 71,38.1312218 L71,32.8687782 C71,32.3914028 70.6395835,32 70.2,32 Z" id="Path"></path>
                <path d="M75.2,32 L72.8,32 C72.3604165,32 72,32.3914028 72,32.8687782 L72,38.1312218 C72,38.6085972 72.3604165,39 72.8,39 L75.2,39 C75.6406251,39 76,38.6085972 76,38.1312218 L76,32.8687782 C76,32.3914028 75.6406251,32 75.2,32 Z" id="Path"></path>
                <path d="M81.2,32 L78.8,32 C78.3604165,32 78,32.3914028 78,32.8687782 L78,38.1312218 C78,38.6085972 78.3604165,39 78.8,39 L81.2,39 C81.6406251,39 82,38.6085972 82,38.1312218 L82,32.8687782 C82,32.3914028 81.6406251,32 81.2,32 Z" id="Path"></path>
                <path d="M88.2,32 L85.8,32 C85.3593749,32 85,32.3914028 85,32.8687782 L85,38.1312218 C85,38.6085972 85.3593749,39 85.8,39 L88.2,39 C88.6395832,39 89,38.6085972 89,38.1312218 L89,32.8687782 C89,32.3914028 88.6395832,32 88.2,32 Z" id="Path"></path>
                <path d="M63.2,42 L60.8,42 C60.3604168,42 60,42.3914026 60,42.8687783 L60,48.1312217 C60,48.6085971 60.3604168,49 60.8,49 L63.2,49 C63.6406251,49 64,48.6085971 64,48.1312217 L64,42.8687783 C64,42.3914026 63.6406251,42 63.2,42 Z" id="Path"></path>
                <path d="M70.2,42 L67.8,42 C67.3593749,42 67,42.3914026 67,42.8687783 L67,48.1312217 C67,48.6085971 67.3593749,49 67.8,49 L70.2,49 C70.6395835,49 71,48.6085971 71,48.1312217 L71,42.8687783 C71,42.3914026 70.6395835,42 70.2,42 Z" id="Path"></path>
                <path d="M75.2,42 L72.8,42 C72.3604165,42 72,42.3914026 72,42.8687783 L72,48.1312217 C72,48.6085971 72.3604165,49 72.8,49 L75.2,49 C75.6406251,49 76,48.6085971 76,48.1312217 L76,42.8687783 C76,42.3914026 75.6406251,42 75.2,42 Z" id="Path"></path>
                <path d="M81.2,42 L78.8,42 C78.3604165,42 78,42.3914026 78,42.8687783 L78,48.1312217 C78,48.6085971 78.3604165,49 78.8,49 L81.2,49 C81.6406251,49 82,48.6085971 82,48.1312217 L82,42.8687783 C82,42.3914026 81.6406251,42 81.2,42 Z" id="Path"></path>
                <path d="M88.2,42 L85.8,42 C85.3593749,42 85,42.3914026 85,42.8687783 L85,48.1312217 C85,48.6085971 85.3593749,49 85.8,49 L88.2,49 C88.6395832,49 89,48.6085971 89,48.1312217 L89,42.8687783 C89,42.3914026 88.6395832,42 88.2,42 Z" id="Path"></path>
                <path d="M63.2,54 L60.8,54 C60.3604168,54 60,54.3914026 60,54.8687783 L60,60.1312217 C60,60.6085974 60.3604168,61 60.8,61 L63.2,61 C63.6406251,61 64,60.6085974 64,60.1312217 L64,54.8687783 C64,54.3914026 63.6406251,54 63.2,54 Z" id="Path"></path>
                <path d="M70.2,54 L67.8,54 C67.3593749,54 67,54.3914026 67,54.8687783 L67,60.1312217 C67,60.6085974 67.3593749,61 67.8,61 L70.2,61 C70.6395835,61 71,60.6085974 71,60.1312217 L71,54.8687783 C71,54.3914026 70.6395835,54 70.2,54 Z" id="Path"></path>
                <path d="M75.2,54 L72.8,54 C72.3604165,54 72,54.3914026 72,54.8687783 L72,60.1312217 C72,60.6085974 72.3604165,61 72.8,61 L75.2,61 C75.6406251,61 76,60.6085974 76,60.1312217 L76,54.8687783 C76,54.3914026 75.6406251,54 75.2,54 Z" id="Path"></path>
                <path d="M81.2,54 L78.8,54 C78.3604165,54 78,54.3914026 78,54.8687783 L78,60.1312217 C78,60.6085974 78.3604165,61 78.8,61 L81.2,61 C81.6406251,61 82,60.6085974 82,60.1312217 L82,54.8687783 C82,54.3914026 81.6406251,54 81.2,54 Z" id="Path"></path>
                <path d="M88.2,54 L85.8,54 C85.3593749,54 85,54.3914026 85,54.8687783 L85,60.1312217 C85,60.6085974 85.3593749,61 85.8,61 L88.2,61 C88.6395832,61 89,60.6085974 89,60.1312217 L89,54.8687783 C89,54.3914026 88.6395832,54 88.2,54 Z" id="Path"></path>
                <path d="M63.2,63 L60.8,63 C60.3604168,63 60,63.3914029 60,63.8687783 L60,69.1312217 C60,69.6085974 60.3604168,70 60.8,70 L63.2,70 C63.6406251,70 64,69.6085974 64,69.1312217 L64,63.8687783 C64,63.3914029 63.6406251,63 63.2,63 Z" id="Path"></path>
                <path d="M70.2,63 L67.8,63 C67.3593749,63 67,63.3914029 67,63.8687783 L67,69.1312217 C67,69.6085974 67.3593749,70 67.8,70 L70.2,70 C70.6395835,70 71,69.6085974 71,69.1312217 L71,63.8687783 C71,63.3914029 70.6395835,63 70.2,63 Z" id="Path"></path>
                <path d="M75.2,63 L72.8,63 C72.3604165,63 72,63.3914029 72,63.8687783 L72,69.1312217 C72,69.6085974 72.3604165,70 72.8,70 L75.2,70 C75.6406251,70 76,69.6085974 76,69.1312217 L76,63.8687783 C76,63.3914029 75.6406251,63 75.2,63 Z" id="Path"></path>
                <path d="M81.2,63 L78.8,63 C78.3604165,63 78,63.3914029 78,63.8687783 L78,69.1312217 C78,69.6085974 78.3604165,70 78.8,70 L81.2,70 C81.6406251,70 82,69.6085974 82,69.1312217 L82,63.8687783 C82,63.3914029 81.6406251,63 81.2,63 Z" id="Path"></path>
                <path d="M88.2,63 L85.8,63 C85.3593749,63 85,63.3914029 85,63.8687783 L85,69.1312217 C85,69.6085974 85.3593749,70 85.8,70 L88.2,70 C88.6395832,70 89,69.6085974 89,69.1312217 L89,63.8687783 C89,63.3914029 88.6395832,63 88.2,63 Z" id="Path"></path>
                <path d="M63.2,74 L60.8,74 C60.3604168,74 60,74.3914028 60,74.8687782 L60,80.1312218 C60,80.6085972 60.3604168,81 60.8,81 L63.2,81 C63.6406251,81 64,80.6085972 64,80.1312218 L64,74.8687782 C64,74.3914028 63.6406251,74 63.2,74 Z" id="Path"></path>
                <path d="M70.2,74 L67.8,74 C67.3593749,74 67,74.3914028 67,74.8687782 L67,80.1312218 C67,80.6085972 67.3593749,81 67.8,81 L70.2,81 C70.6395835,81 71,80.6085972 71,80.1312218 L71,74.8687782 C71,74.3914028 70.6395835,74 70.2,74 Z" id="Path"></path>
                <path d="M75.2,74 L72.8,74 C72.3604165,74 72,74.3914028 72,74.8687782 L72,80.1312218 C72,80.6085972 72.3604165,81 72.8,81 L75.2,81 C75.6406251,81 76,80.6085972 76,80.1312218 L76,74.8687782 C76,74.3914028 75.6406251,74 75.2,74 Z" id="Path"></path>
                <path d="M81.2,74 L78.8,74 C78.3604165,74 78,74.3914028 78,74.8687782 L78,80.1312218 C78,80.6085972 78.3604165,81 78.8,81 L81.2,81 C81.6406251,81 82,80.6085972 82,80.1312218 L82,74.8687782 C82,74.3914028 81.6406251,74 81.2,74 Z" id="Path"></path>
                <path d="M88.2,74 L85.8,74 C85.3593749,74 85,74.3914028 85,74.8687782 L85,80.1312218 C85,80.6085972 85.3593749,81 85.8,81 L88.2,81 C88.6395832,81 89,80.6085972 89,80.1312218 L89,74.8687782 C89,74.3914028 88.6395832,74 88.2,74 Z" id="Path"></path>
                <path d="M63.2,84 L60.8,84 C60.3604168,84 60,84.3914026 60,84.8687783 L60,90.1312217 C60,90.6085971 60.3604168,91 60.8,91 L63.2,91 C63.6406251,91 64,90.6085971 64,90.1312217 L64,84.8687783 C64,84.3914026 63.6406251,84 63.2,84 Z" id="Path"></path>
                <path d="M70.2,84 L67.8,84 C67.3593749,84 67,84.3914026 67,84.8687783 L67,90.1312217 C67,90.6085971 67.3593749,91 67.8,91 L70.2,91 C70.6395835,91 71,90.6085971 71,90.1312217 L71,84.8687783 C71,84.3914026 70.6395835,84 70.2,84 Z" id="Path"></path>
                <path d="M75.2,84 L72.8,84 C72.3604165,84 72,84.3914026 72,84.8687783 L72,90.1312217 C72,90.6085971 72.3604165,91 72.8,91 L75.2,91 C75.6406251,91 76,90.6085971 76,90.1312217 L76,84.8687783 C76,84.3914026 75.6406251,84 75.2,84 Z" id="Path"></path>
                <path d="M81.2,84 L78.8,84 C78.3604165,84 78,84.3914026 78,84.8687783 L78,90.1312217 C78,90.6085971 78.3604165,91 78.8,91 L81.2,91 C81.6406251,91 82,90.6085971 82,90.1312217 L82,84.8687783 C82,84.3914026 81.6406251,84 81.2,84 Z" id="Path"></path>
                <path d="M88.2,84 L85.8,84 C85.3593749,84 85,84.3914026 85,84.8687783 L85,90.1312217 C85,90.6085971 85.3593749,91 85.8,91 L88.2,91 C88.6395832,91 89,90.6085971 89,90.1312217 L89,84.8687783 C89,84.3914026 88.6395832,84 88.2,84 Z" id="Path"></path>
                <path d="M63.2,93 L60.8,93 C60.3604168,93 60,93.3914026 60,93.8687783 L60,99.1312217 C60,99.6097286 60.3604168,100 60.8,100 L63.2,100 C63.6406251,100 64,99.6097286 64,99.1312217 L64,93.8687783 C64,93.3914026 63.6406251,93 63.2,93 Z" id="Path"></path>
                <path d="M70.2,93 L67.8,93 C67.3593749,93 67,93.3914026 67,93.8687783 L67,99.1312217 C67,99.6097286 67.3593749,100 67.8,100 L70.2,100 C70.6395835,100 71,99.6097286 71,99.1312217 L71,93.8687783 C71,93.3914026 70.6395835,93 70.2,93 Z" id="Path"></path>
                <path d="M75.2,93 L72.8,93 C72.3604165,93 72,93.3914026 72,93.8687783 L72,99.1312217 C72,99.6097286 72.3604165,100 72.8,100 L75.2,100 C75.6406251,100 76,99.6097286 76,99.1312217 L76,93.8687783 C76,93.3914026 75.6406251,93 75.2,93 Z" id="Path"></path>
                <path d="M81.2,93 L78.8,93 C78.3604165,93 78,93.3914026 78,93.8687783 L78,99.1312217 C78,99.6097286 78.3604165,100 78.8,100 L81.2,100 C81.6406251,100 82,99.6097286 82,99.1312217 L82,93.8687783 C82,93.3914026 81.6406251,93 81.2,93 Z" id="Path"></path>
                <path d="M88.2,93 L85.8,93 C85.3593749,93 85,93.3914026 85,93.8687783 L85,99.1312217 C85,99.6097286 85.3593749,100 85.8,100 L88.2,100 C88.6395832,100 89,99.6097286 89,99.1312217 L89,93.8687783 C89,93.3914026 88.6395832,93 88.2,93 Z" id="Path"></path>
                <path d="M63.2,105 L60.8,105 C60.3604168,105 60,105.391403 60,105.868778 L60,111.131222 C60,111.609729 60.3604168,112 60.8,112 L63.2,112 C63.6406251,112 64,111.609729 64,111.131222 L64,105.868778 C64,105.391403 63.6406251,105 63.2,105 Z" id="Path"></path>
                <path d="M70.2,105 L67.8,105 C67.3593749,105 67,105.391403 67,105.868778 L67,111.131222 C67,111.609729 67.3593749,112 67.8,112 L70.2,112 C70.6395835,112 71,111.609729 71,111.131222 L71,105.868778 C71,105.391403 70.6395835,105 70.2,105 Z" id="Path"></path>
                <path d="M75.2,105 L72.8,105 C72.3604165,105 72,105.391403 72,105.868778 L72,111.131222 C72,111.609729 72.3604165,112 72.8,112 L75.2,112 C75.6406251,112 76,111.609729 76,111.131222 L76,105.868778 C76,105.391403 75.6406251,105 75.2,105 Z" id="Path"></path>
                <path d="M81.2,105 L78.8,105 C78.3604165,105 78,105.391403 78,105.868778 L78,111.131222 C78,111.609729 78.3604165,112 78.8,112 L81.2,112 C81.6406251,112 82,111.609729 82,111.131222 L82,105.868778 C82,105.391403 81.6406251,105 81.2,105 Z" id="Path"></path>
                <path d="M88.2,105 L85.8,105 C85.3593749,105 85,105.391403 85,105.868778 L85,111.131222 C85,111.609729 85.3593749,112 85.8,112 L88.2,112 C88.6395832,112 89,111.609729 89,111.131222 L89,105.868778 C89,105.391403 88.6395832,105 88.2,105 Z" id="Path"></path>
                <path d="M63.2,114 L60.8,114 C60.3604168,114 60,114.391403 60,114.868778 L60,120.131222 C60,120.609728 60.3604168,121 60.8,121 L63.2,121 C63.6406251,121 64,120.609728 64,120.131222 L64,114.868778 C64,114.390272 63.6406251,114 63.2,114 Z" id="Path"></path>
                <path d="M70.2,114 L67.8,114 C67.3593749,114 67,114.391403 67,114.868778 L67,120.131222 C67,120.609728 67.3593749,121 67.8,121 L70.2,121 C70.6395835,121 71,120.609728 71,120.131222 L71,114.868778 C71,114.390272 70.6395835,114 70.2,114 Z" id="Path"></path>
                <path d="M75.2,114 L72.8,114 C72.3604165,114 72,114.391403 72,114.868778 L72,120.131222 C72,120.609728 72.3604165,121 72.8,121 L75.2,121 C75.6406251,121 76,120.609728 76,120.131222 L76,114.868778 C76,114.390272 75.6395835,114 75.2,114 Z" id="Path"></path>
                <path d="M81.2,114 L78.8,114 C78.3604165,114 78,114.391403 78,114.868778 L78,120.131222 C78,120.609728 78.3604165,121 78.8,121 L81.2,121 C81.6406251,121 82,120.609728 82,120.131222 L82,114.868778 C82,114.390272 81.6406251,114 81.2,114 Z" id="Path"></path>
                <path d="M88.2,114 L85.8,114 C85.3593749,114 85,114.391403 85,114.868778 L85,120.131222 C85,120.609728 85.3593749,121 85.8,121 L88.2,121 C88.6395832,121 89,120.609728 89,120.131222 L89,114.868778 C89,114.390272 88.6395832,114 88.2,114 Z" id="Path"></path>
                <path d="M146.817383,132.689671 L140.450279,132.689671 L140.450279,126.930218 C145.324791,125.931209 149,121.657922 149,116.553998 C149,110.710359 144.185738,105.955527 138.267662,105.955527 C132.349586,105.955527 127.535324,110.710359 127.535324,116.553998 C127.535324,121.659044 131.210533,125.931209 136.085045,126.930218 L136.085045,132.689671 L125.980209,132.689671 L125.980209,54.3640281 C125.980209,52.3828482 124.347793,50.7720871 122.342514,50.7720871 L120.189453,50.7720871 C118.984467,50.7720871 118.006836,51.7362988 118.006836,52.9272517 C118.006836,54.1170822 118.984467,55.0824163 120.189453,55.0824163 L121.614975,55.0824163 L121.614975,132.689671 L116.260742,132.689671 L116.260742,116.522568 C116.260742,114.859051 114.889786,113.505338 113.205078,113.505338 L105.347656,113.505338 C103.662949,113.505338 102.291992,114.859051 102.291992,116.522568 L102.291992,132.689671 L97.6175537,132.689671 L97.6175537,115.339473 C97.6175537,114.14852 96.6399231,113.184308 95.4349365,113.184308 C94.22995,113.184308 93.2523193,114.14852 93.2523193,115.339473 L93.2523193,132.689671 L55.7113037,132.689671 L55.7113037,27.7129478 L93.2523193,27.7129478 L93.2523193,105.282038 C93.2523193,106.471868 94.22995,107.437202 95.4349365,107.437202 C96.6399231,107.437202 97.6175537,106.471868 97.6175537,105.282038 L97.6175537,55.0824163 L110.003906,55.0824163 C111.208893,55.0824163 112.186523,54.1170822 112.186523,52.9272517 C112.186523,51.7362988 111.208893,50.7720871 110.003906,50.7720871 L97.6175537,50.7720871 L97.6175537,26.9945596 C97.6175537,25.014502 95.9851379,23.4026185 93.9798584,23.4026185 L93.3114319,23.4026185 L93.3114319,20.045276 C93.3114319,18.0640961 91.6790161,16.4533349 89.6737366,16.4533349 L89.4804839,16.4533349 L89.4804839,15.2837093 C89.4804839,13.7301947 88.4914856,12.0386149 87.1296236,11.2618577 L76.8326721,5.39127912 C76.77697,5.35984964 76.7201308,5.33403249 76.6644287,5.30484811 L76.6644287,2.15516464 C76.6644287,0.965334163 75.6867981,0 74.4818115,0 C73.276825,0 72.2991943,0.965334163 72.2991943,2.15516464 L72.2991943,5.30484811 C72.2423555,5.33403249 72.1866531,5.35984964 72.1298142,5.39127912 L61.8339995,11.2618577 C60.4721375,12.0386149 59.4831392,13.7301947 59.4831392,15.2837093 L59.4831392,16.4533349 L59.2898865,16.4533349 C57.2846069,16.4533349 55.6521912,18.0640961 55.6521912,20.045276 L55.6521912,23.4026185 L54.9837646,23.4026185 C52.9773484,23.4026185 51.3460693,25.014502 51.3460693,26.9945596 L51.3460693,65.5136376 L49.4726562,65.5136376 C48.2676697,65.5136376 47.2900391,66.4778494 47.2900391,67.6688023 C47.2900391,68.8586328 48.2676697,69.8239669 49.4726562,69.8239669 L51.3460693,69.8239669 L51.3460693,132.689671 L27.6760405,132.689671 L27.6760405,69.8228445 L38.9960938,69.8228445 C40.2010803,69.8228445 41.1787109,68.8586328 41.1787109,67.6676799 C41.1787109,66.4778494 40.2010803,65.5125152 38.9960938,65.5125152 L26.9485014,65.5125152 C24.9432222,65.5125152 23.3108061,67.1243988 23.3108061,69.1044563 L23.3108061,132.689671 L12.9149551,132.689671 L12.9149551,126.930218 C17.7894668,125.931209 21.4646758,121.657922 21.4646758,116.552875 C21.4646758,110.709236 16.6504136,105.955527 10.7323379,105.955527 C4.81426246,105.955527 0,110.710359 0,116.553998 C0,121.659044 3.67520897,125.931209 8.54972069,126.930218 L8.54972069,132.689671 L2.18261719,132.689671 C0.977630615,132.689671 0,133.653882 0,134.844835 C0,136.035788 0.977630615,137 2.18261719,137 L146.817383,137 C148.022369,137 149,136.035788 149,134.844835 C149,133.653882 148.022369,132.689671 146.817383,132.689671 Z M63.8472366,15.3117712 L63.8483736,15.3117712 C63.8699722,15.2163604 63.9688721,15.0457432 64.0427627,14.9795167 L74.2862854,9.13924521 C74.3158418,9.13138777 74.3851853,9.11679529 74.4818115,9.11679529 C74.577301,9.11679529 74.6477812,9.13138777 74.6773376,9.13924521 L84.9208604,14.9795167 C84.9936143,15.0457432 85.0936509,15.2163604 85.1152495,15.3117712 L85.1152495,16.4533349 L63.8472366,16.4533349 L63.8472366,15.3117712 Z M88.9461975,20.7636642 L88.9461975,23.4026185 L60.0174255,23.4026185 L60.0174255,20.7636642 L88.9461975,20.7636642 Z M10.7323379,118.619364 C9.52735131,118.619364 8.54972069,119.583576 8.54972069,120.774529 L8.54972069,122.459373 C6.11019142,121.578225 4.36523438,119.263668 4.36523438,116.553998 C4.36523438,113.086652 7.2219619,110.265856 10.7323379,110.265856 C14.2427139,110.265856 17.0994414,113.086652 17.0994414,116.553998 C17.0994414,119.263668 15.3544846,121.578225 12.9149551,122.460496 L12.9149551,120.774529 C12.9149551,119.583576 11.9373245,118.619364 10.7323379,118.619364 Z M111.895508,132.689671 L106.657227,132.689671 L106.657227,117.815667 L111.895508,117.815667 L111.895508,132.689671 Z M138.267662,118.619364 C137.062676,118.619364 136.085045,119.583576 136.085045,120.774529 L136.085045,122.459373 C133.645515,121.578225 131.900559,119.263668 131.900559,116.552875 C131.900559,113.086652 134.757286,110.265856 138.267662,110.265856 C141.779175,110.265856 144.634766,113.086652 144.634766,116.552875 C144.634766,119.263668 142.889809,121.578225 140.450279,122.459373 L140.450279,120.774529 C140.450279,119.583576 139.472649,118.619364 138.267662,118.619364 Z" id="Shape" fill-rule="nonzero"></path>
            </g>
        </g>
    </g>
</svg>