<?xml version="1.0" encoding="UTF-8"?>
<svg width="68px" height="68px" viewBox="0 0 68 68" version="1.1" xmlns="http://www.w3.org/2000/svg" xmlns:xlink="http://www.w3.org/1999/xlink">
    <!-- Generator: Sketch 52.6 (67491) - http://www.bohemiancoding.com/sketch -->
    <title>Group 2</title>
    <desc>Created with Sketch.</desc>
    <g id="Page-1" stroke="none" stroke-width="1" fill="none" fill-rule="evenodd">
        <g id="Apple-TV" transform="translate(-920.000000, -1279.000000)" fill="#CD4545">
            <g id="Group-2" transform="translate(920.000000, 1279.000000)">
                <circle id="Oval" fill-opacity="0.166921422" cx="34" cy="34" r="34"></circle>
                <g id="return" transform="translate(12.000000, 13.000000)">
                    <path d="M39,21.804949 L37.5652174,21.804949 C37.5652174,29.9581724 30.8067467,36.5917347 22.5,36.5917347 C14.1932533,36.5917347 7.43478261,29.9581724 7.43478261,21.804949 C7.43478261,14.2709358 13.2096425,8.04651318 20.6413681,7.14296796 L19.1232167,8.63306122 L20.1376529,9.62840501 L23.5144361,6.31403061 L20.1376529,3 L19.1232167,3.99534379 L20.8508407,5.69103815 C12.5241274,6.50587921 6,13.4210257 6,21.804949 C6,30.7355376 13.4012504,38 22.5,38 C31.5987496,38 39,30.7355376 39,21.804949 Z" id="Path"></path>
                    <polygon id="Path" points="17 0.332225914 18.6677051 0 19 1.66818934 17.3322949 2"></polygon>
                    <polygon id="Path" points="13 1.58594918 14.4143151 1 15 2.41405082 13.5860587 3"></polygon>
                    <polygon id="Path" points="9 3.80105636 10.1984504 3 11 4.19929582 9.80119741 5"></polygon>
                    <polygon id="Path" points="6 6.99982734 6.99982739 6 8 6.99982734 6.99982739 8"></polygon>
                    <path d="M20.3333333,12.0625 L20.3333333,12.7990112 C17.8863118,13.1330261 16,15.1418152 16,17.5625 L16,18.25 C16,20.9033203 18.2685818,23.0625 21.0555556,23.0625 L23.9444444,23.0625 C24.3429362,23.0625 24.6666667,23.3706665 24.6666667,23.75 L24.6666667,24.4375 C24.6666667,24.8171691 24.3429362,25.125 23.9444444,25.125 L21.0555556,25.125 C20.6570638,25.125 20.3333333,24.8171691 20.3333333,24.4375 L20.3333333,23.75 L16,23.75 L16,24.4375 C16,26.8581847 17.8863118,28.8666381 20.3333333,29.2013244 L20.3333333,29.9375 C20.3333333,31.074829 21.3055827,32 22.5,32 C23.6944173,32 24.6666667,31.074829 24.6666667,29.9375 L24.6666667,29.2013244 C27.1136882,28.8673095 29,26.8581847 29,24.4375 L29,23.75 C29,21.0970154 26.7314182,18.9375 23.9444444,18.9375 L21.0555556,18.9375 C20.6570638,18.9375 20.3333333,18.6296691 20.3333333,18.25 L20.3333333,17.5625 C20.3333333,17.1831665 20.6570638,16.875 21.0555556,16.875 L23.9444444,16.875 C24.3429362,16.875 24.6666667,17.1831665 24.6666667,17.5625 L24.6666667,18.25 L29,18.25 L29,17.5625 C29,15.1418152 27.1136882,13.1336974 24.6666667,12.7990112 L24.6666667,12.0625 C24.6666667,10.9255066 23.6944173,10 22.5,10 C21.3055827,10 20.3333333,10.9255066 20.3333333,12.0625 Z M23.2222222,12.0625 L23.2222222,14.125 L23.9444444,14.125 C25.6886393,14.125 27.1475423,15.3083191 27.4825575,16.875 L25.9876844,16.875 C25.6893446,16.0750427 24.8863661,15.5 23.9444444,15.5 L21.0555556,15.5 C19.8611382,15.5 18.8888889,16.4255066 18.8888889,17.5625 L18.8888889,18.25 C18.8888889,19.387329 19.8611382,20.3125 21.0555556,20.3125 L23.9444444,20.3125 C25.9354927,20.3125 27.5555556,21.8546752 27.5555556,23.75 L27.5555556,24.4375 C27.5555556,26.3331603 25.9354927,27.875 23.9444444,27.875 L23.2222222,27.875 L23.2222222,29.9375 C23.2222222,30.3171691 22.8984917,30.625 22.5,30.625 C22.1015083,30.625 21.7777778,30.3171691 21.7777778,29.9375 L21.7777778,27.875 L21.0555556,27.875 C19.3113607,27.875 17.8524577,26.6920165 17.5174425,25.125 L19.0123156,25.125 C19.3106554,25.925293 20.1136339,26.5 21.0555556,26.5 L23.9444444,26.5 C25.1388618,26.5 26.1111111,25.574829 26.1111111,24.4375 L26.1111111,23.75 C26.1111111,22.6130066 25.1388618,21.6875 23.9444444,21.6875 L21.0555556,21.6875 C19.0645073,21.6875 17.4444444,20.1456603 17.4444444,18.25 L17.4444444,17.5625 C17.4444444,15.6671752 19.0645073,14.125 21.0555556,14.125 L21.7777778,14.125 L21.7777778,12.0625 C21.7777778,11.6831665 22.1015083,11.375 22.5,11.375 C22.8984917,11.375 23.2222222,11.6831665 23.2222222,12.0625 Z" id="Shape" fill-rule="nonzero"></path>
                    <path d="M6.38194591,8.88101092 L5.22778351,8 C1.85634753,11.8337715 0,16.6778051 0,21.6409126 C0,26.9490289 2.09162333,32.0478331 5.88881371,36 L7,35.0728522 C3.44828304,31.3768128 1.4917794,26.606734 1.4917794,21.6409126 C1.4917794,16.9980494 3.22830385,12.4667967 6.38194591,8.88101092 Z" id="Path"></path>
                    <polygon id="Path" points="25 41.3322949 26.6677051 41 27 42.6677051 25.3322949 43"></polygon>
                    <polygon id="Path" points="29 40.5859492 30.4143151 40 31 41.4140508 29.5860587 42"></polygon>
                    <polygon id="Path" points="33 38.8007043 34.1984504 38 35 39.1989437 33.8011974 40"></polygon>
                    <polygon id="Path" points="36 36.0001726 37 35 38 36.0001726 37 37"></polygon>
                    <path d="M38.1111863,7 L37,7.92712534 C40.551717,11.6230751 42.5082206,16.3930384 42.5082206,21.3584003 C42.5082206,26.0021687 40.7716961,30.5333115 37.6180541,34.1190104 L38.7722165,35 C42.1436525,31.1663214 44,26.3224052 44,21.3584003 C44,16.0507518 41.9083767,10.9517319 38.1111863,7 Z" id="Path"></path>
                </g>
            </g>
        </g>
    </g>
</svg>