<?xml version="1.0" encoding="UTF-8"?>
<svg width="68px" height="68px" viewBox="0 0 68 68" version="1.1" xmlns="http://www.w3.org/2000/svg" xmlns:xlink="http://www.w3.org/1999/xlink">
    <!-- Generator: Sketch 52.6 (67491) - http://www.bohemiancoding.com/sketch -->
    <title>Group 5</title>
    <desc>Created with Sketch.</desc>
    <g id="Page-1" stroke="none" stroke-width="1" fill="none" fill-rule="evenodd">
        <g id="Apple-TV" transform="translate(-1273.000000, -1563.000000)" fill="#CD4545">
            <g id="Group-5" transform="translate(1273.000000, 1563.000000)">
                <circle id="Oval-Copy-2" fill-opacity="0.166921422" cx="34" cy="34" r="34"></circle>
                <g id="donation" transform="translate(18.000000, 18.000000)">
                    <path d="M20,16 C24.4110069,16 28,12.4110069 28,8 C28,3.58899314 24.4110069,0 20,0 C15.5889931,0 12,3.58899314 12,8 C12,12.4110069 15.5889931,16 20,16 Z M20,0.999963379 C23.8599899,0.999963379 27.0000366,4.13995151 27.0000366,8 C27.0000366,11.8600485 23.8600485,15.0000366 20,15.0000366 C16.1399515,15.0000366 12.9999634,11.8600485 12.9999634,8 C12.9999634,4.13995151 16.1400101,0.999963379 20,0.999963379 Z" id="Shape" fill-rule="nonzero"></path>
                    <path d="M30.7199128,22.00391 C30.1454711,21.0483663 28.8668318,20.7220431 27.9069673,21.2558029 L21.9123766,24.0554359 C20.9806482,24.5026954 20.0400702,24.5026954 17.9786839,24.5026954 C15.9636825,24.5026954 12.887197,24.0144405 12.8564974,24.009931 C12.57007,23.9654803 12.3039055,24.1488468 12.2570322,24.4202362 C12.2096097,24.6926212 12.401314,24.9504821 12.6846288,24.9954599 C12.8143237,25.0164261 15.8767107,25.5022213 17.9786839,25.5022213 C20.1410796,25.5022213 21.2264888,25.5022213 22.373297,24.9520048 L28.3949254,22.1379063 C28.6355171,22.0044956 28.9162684,21.9690053 29.1855456,22.0379361 C29.4537852,22.107394 29.6787525,22.2728397 29.8172972,22.5037022 C29.9568794,22.7350918 29.9938654,23.0044315 29.9219686,23.262351 C29.8500719,23.5202705 29.6777149,23.7356133 29.4219871,23.8775745 L22.3800717,28.0829975 C22.3654848,28.092485 20.8629158,29.0005327 17.4578901,29.0005327 C14.5059116,29.0005327 9.94412933,26.588716 9.87845792,26.5542213 C9.83158465,26.5322595 8.70192664,26.0020136 6.52079377,26.0020136 C6.23332879,26.0020136 6,26.2259069 6,26.5017472 C6,26.7775876 6.23332879,27.0014809 6.52079377,27.0014809 C8.41501096,27.0014809 9.39098812,27.4387844 9.39306324,27.4387844 L9.39306324,27.4382574 C9.58940609,27.5432055 14.2350476,30 17.4578901,30 C21.2181883,30 22.8857903,28.9605329 22.9410251,28.9250426 L29.9574287,24.7346121 C30.4391614,24.4677322 30.7839363,24.0364608 30.9277298,23.5212075 C31.0724999,23.0049 30.9980397,22.4661622 30.7199128,22.00391 Z" id="Path"></path>
                    <path d="M21,10.5000073 C20.4485102,10.5000073 19.9999707,10.051533 19.9999707,9.49999268 C19.9999707,9.22401746 19.776492,9.00001465 19.4999854,9.00001465 C19.2234787,9.00001465 19,9.22401746 19,9.49999268 C19,10.428992 19.6394984,11.2054726 20.5000146,11.4290067 L20.5000146,11.500022 C20.5000146,11.7759972 20.7234934,12 21,12 C21.2765066,12 21.4999854,11.7759972 21.4999854,11.500022 L21.4999854,11.4290067 C22.3605016,11.2055312 23,10.428992 23,9.49999268 C23,8.39697072 22.1029795,7.50002197 21,7.50002197 C20.4485102,7.50002197 19.9999707,7.0515476 19.9999707,6.50000732 C19.9999707,5.94852564 20.4484516,5.49999268 21,5.49999268 C21.5514898,5.49999268 22.0000293,5.94846705 22.0000293,6.50000732 C22.0000293,6.77598254 22.223508,6.99998535 22.5000146,6.99998535 C22.7765213,6.99998535 23,6.77598254 23,6.50000732 C23,5.57100795 22.3605016,4.79452737 21.4999854,4.57099331 L21.4999854,4.49997803 C21.4999854,4.22400281 21.2765066,4 21,4 C20.7234934,4 20.5000146,4.22400281 20.5000146,4.49997803 L20.5000146,4.57099331 C19.6394984,4.79446878 19,5.57100795 19,6.50000732 C19,7.60302928 19.8970205,8.49997803 21,8.49997803 C21.5514898,8.49997803 22.0000293,8.9484524 22.0000293,9.49999268 C22.0000293,10.0514744 21.5515484,10.5000073 21,10.5000073 Z" id="Path"></path>
                    <path d="M3.49999414,17 L0.499982422,17 C0.224004781,17 4.16335261e-16,17.2240061 4.16335261e-16,17.4999854 C4.16335261e-16,17.7759646 0.224004781,17.9999707 0.499982422,17.9999707 L3.49999414,17.9999707 C3.77550303,17.9999707 3.99997656,18.2244456 3.99997656,18.4999561 L3.99997656,29.5000439 C3.99997656,29.7755544 3.77550303,30.0000293 3.49999414,30.0000293 L0.499982422,30.0000293 C0.224004781,30.0000293 0,30.2240354 0,30.5000146 C0,30.7759939 0.224004781,31 0.499982422,31 L3.49999414,31 C4.32698956,31 5,30.3269856 5,29.4999854 L5,18.5000146 C5,17.6730144 4.32698956,17 3.49999414,17 Z" id="Path"></path>
                    <path d="M6.53331042,19.8889062 L10.7999813,19.8889062 C11.4223538,19.8889062 12.4799747,20.5502604 13.4132835,21.1333333 C14.583404,21.8648958 15.6890247,22.5555729 16.6665833,22.5555729 L19.8665708,22.5555729 C20.6766927,22.5555729 21.0788161,22.8617708 21.0895036,22.8697917 C21.1935032,22.9564583 21.3300651,23 21.4665646,23 C21.6031266,23 21.739626,22.9564583 21.8436256,22.8697917 C22.0521248,22.6959896 22.0521248,22.4151042 21.8436256,22.2413542 C21.7732509,22.1827083 21.1183159,21.6666667 19.8665708,21.6666667 L16.6665833,21.6666667 C16.0442108,21.6666667 14.9865899,21.0053125 14.053281,20.4222396 C12.8831606,19.6906771 11.7775399,19 10.7999813,19 L6.53331042,19 C6.23893657,19 6,19.1991146 6,19.4444271 C6,19.6897396 6.23893657,19.8889062 6.53331042,19.8889062 Z" id="Path"></path>
                    <path d="M2,27.5 C2,27.2243359 1.77566406,27 1.5,27 C1.22433594,27 1,27.2243359 1,27.5 C1,27.7756641 1.22433594,28 1.5,28 C1.77566406,28 2,27.7756641 2,27.5 Z" id="Path"></path>
                </g>
            </g>
        </g>
    </g>
</svg>