<?xml version="1.0" encoding="UTF-8"?>
<svg width="68px" height="68px" viewBox="0 0 68 68" version="1.1" xmlns="http://www.w3.org/2000/svg" xmlns:xlink="http://www.w3.org/1999/xlink">
    <!-- Generator: Sketch 52.6 (67491) - http://www.bohemiancoding.com/sketch -->
    <title>Group 3</title>
    <desc>Created with Sketch.</desc>
    <g id="Page-1" stroke="none" stroke-width="1" fill="none" fill-rule="evenodd">
        <g id="Apple-TV" transform="translate(-1273.000000, -1279.000000)" fill="#CD4545">
            <g id="Group-3" transform="translate(1273.000000, 1279.000000)">
                <circle id="Oval-Copy" fill-opacity="0.166921422" cx="34" cy="34" r="34"></circle>
                <g id="solar-energy" transform="translate(13.000000, 13.000000)">
                    <path d="M21,35 C13.2804697,35 7,28.7195303 7,21 C7,13.2804697 13.2804697,7 21,7 C28.7195303,7 35,13.2804697 35,21 C35,28.7195303 28.7195303,35 21,35 Z M21,8.39996802 C14.0527111,8.39996802 8.39996802,14.0527111 8.39996802,21 C8.39996802,27.9472889 14.0527111,33.600032 21,33.600032 C27.9472889,33.600032 33.600032,27.9472889 33.600032,21 C33.600032,14.0527111 27.9472889,8.39996802 21,8.39996802 Z" id="Shape" fill-rule="nonzero"></path>
                    <path d="M20.5,42 C20.2240274,42 20,41.6638819 20,41.2498284 L20,36.7498283 C20,36.3357748 20.2240274,36 20.5,36 C20.7759726,36 21,36.3357748 21,36.7498283 L21,41.2498284 C21,41.6638819 20.7759726,42 20.5,42 Z" id="Path"></path>
                    <path d="M20.5,6 C20.2240274,6 20,5.66422518 20,5.25017166 L20,0.750171642 C20,0.336118127 20.2240274,0 20.5,0 C20.7759726,0 21,0.336118127 21,0.750171642 L21,5.25017166 C21,5.66422518 20.7759726,6 20.5,6 Z" id="Path"></path>
                    <path d="M5.25017166,22 L0.750171642,22 C0.336118127,22 0,21.7759726 0,21.5 C0,21.2240274 0.336118127,21 0.750171642,21 L5.25017166,21 C5.66422518,21 6,21.2240274 6,21.5 C6,21.7759726 5.66422518,22 5.25017166,22 Z" id="Path"></path>
                    <path d="M41.2498284,22 L36.7498283,22 C36.3357748,22 36,21.7759726 36,21.5 C36,21.2240274 36.3357748,21 36.7498283,21 L41.2498284,21 C41.6638819,21 42,21.2240274 42,21.5 C42,21.7759726 41.6638819,22 41.2498284,22 Z" id="Path"></path>
                    <path d="M16.8890092,32 C16.7779323,32 16.6658636,31.9756466 16.5620597,31.9243763 C16.2665158,31.7788968 16.1114709,31.4562143 16.1858529,31.1425041 L18.1478807,22.8998412 L14.7226792,22.8998412 C14.439367,22.8998412 14.1831629,22.7396215 14.0654743,22.4909605 C13.9477857,22.2419791 13.9910924,21.9490974 14.1765512,21.7420936 L23.5648627,11.2419351 C23.7823883,10.9984011 24.1427271,10.930468 24.4379403,11.0759475 C24.7341454,11.2214269 24.8895208,11.5444299 24.8141471,11.8578196 L22.8521193,20.0998417 L26.2773208,20.0998417 C26.560633,20.0998417 26.8168371,20.2600614 26.9345257,20.5087224 C27.0522143,20.7577038 27.0089076,21.0505854 26.8234488,21.2575892 L17.4351373,31.7577478 C17.2943077,31.9160448 17.0936419,32 16.8890092,32 Z M16.3042026,21.4998414 L19.0556698,21.4998414 C19.2758401,21.4998414 19.4837787,21.597255 19.6203107,21.7638835 C19.7575038,21.9301916 19.8080835,22.1487312 19.7591568,22.3573373 L18.2460648,28.7135734 L24.6957974,21.4998414 L21.9443302,21.4998414 C21.7241599,21.4998414 21.5162213,21.4024279 21.3790282,21.2357994 C21.2424962,21.0694913 21.1912553,20.8509517 21.2401821,20.6423456 L22.7539352,14.2861095 L16.3042026,21.4998414 Z" id="Shape" fill-rule="nonzero"></path>
                    <path d="M35.3589499,36 C35.1949842,36 35.0310186,35.936934 34.9060644,35.8122685 L32.1878712,33.0939757 C31.9373763,32.8434716 31.9373763,32.4383823 32.1878712,32.1878781 C32.4383662,31.937374 32.8434406,31.937374 33.0939356,32.1878781 L35.8121287,34.9061709 C36.0626238,35.1566751 36.0626238,35.5614711 35.8121287,35.8122685 C35.6871746,35.936934 35.5229156,36 35.3589499,36 Z" id="Path"></path>
                    <path d="M9.35915246,10 C9.19521982,10 9.03099394,9.93722726 8.906065,9.81226855 L6.18783338,7.09397573 C5.93738887,6.84347161 5.93738887,6.43867558 6.18783338,6.18787815 C6.43769133,5.93737395 6.84327063,5.93737395 7.09371507,6.18787815 L9.81194669,8.90617096 C10.0626844,9.15667509 10.0626844,9.56176435 9.81194669,9.81226855 C9.68701775,9.93781396 9.52249862,10 9.35915246,10 Z" id="Path"></path>
                    <path d="M6.64092085,36 C6.4769882,36 6.31276232,35.936934 6.18783338,35.8122685 C5.93738887,35.5614711 5.93738887,35.1566751 6.18783338,34.9061709 L8.906065,32.1878781 C9.15680275,31.937374 9.56208873,31.937374 9.81194669,32.1878781 C10.0626844,32.4383823 10.0626844,32.8434716 9.81194669,33.0939757 L7.09371507,35.8122685 C6.96878606,35.936934 6.80485349,36 6.64092085,36 Z" id="Path"></path>
                    <path d="M32.6407567,10 C32.476791,10 32.3128254,9.93722726 32.1878712,9.81226855 C31.9373763,9.56176435 31.9373763,9.15667509 32.1878712,8.90617096 L34.9060644,6.18787815 C35.1565593,5.93737395 35.5613405,5.93737395 35.8121287,6.18787815 C36.0626238,6.43867558 36.0626238,6.84347161 35.8121287,7.09397573 L33.0939356,9.81226855 C32.9683948,9.93781396 32.8047224,10 32.6407567,10 Z" id="Path"></path>
                </g>
            </g>
        </g>
    </g>
</svg>