<svg id="Warstwa_1" data-name="Warstwa 1" xmlns="http://www.w3.org/2000/svg" xmlns:xlink="http://www.w3.org/1999/xlink" viewBox="0 0 406.41 62.99"><defs><style>.cls-1{fill:#fff;}.cls-2{mask:url(#mask);}.cls-3{fill:#3b3b3b;}.cls-4{mask:url(#mask-2);}.cls-5{fill:#cd4545;}.cls-6{mask:url(#mask-3);}.cls-7{mask:url(#mask-4);}.cls-8{filter:url(#luminosity-invert-noclip-4);}.cls-9{filter:url(#luminosity-invert-noclip-3);}.cls-10{filter:url(#luminosity-invert-noclip-2);}.cls-11{filter:url(#luminosity-invert-noclip);}</style><filter id="luminosity-invert-noclip" x="0" y="0" width="47.87" height="48.68" filterUnits="userSpaceOnUse" color-interpolation-filters="sRGB"><feColorMatrix values="-1 0 0 0 1 0 -1 0 0 1 0 0 -1 0 1 0 0 0 1 0" result="invert"/><feFlood flood-color="#fff" result="bg"/><feBlend in="invert" in2="bg"/></filter><mask id="mask" x="0" y="0" width="47.87" height="48.68" maskUnits="userSpaceOnUse"><g class="cls-11"><circle class="cls-1" cx="46.95" cy="38.13" r="0.46"/><circle class="cls-1" cx="46.02" cy="38.13" r="0.46"/><circle class="cls-1" cx="45.09" cy="38.13" r="0.46"/><circle class="cls-1" cx="44.17" cy="38.13" r="0.46"/><circle class="cls-1" cx="43.24" cy="38.13" r="0.46"/><circle class="cls-1" cx="42.31" cy="38.13" r="0.46"/><circle class="cls-1" cx="41.38" cy="38.13" r="0.46"/><circle class="cls-1" cx="40.46" cy="38.13" r="0.44"/><path class="cls-1" d="M39.53,38.54a.41.41,0,1,1,.41-.41A.41.41,0,0,1,39.53,38.54Z"/><path class="cls-1" d="M38.6,38.52a.39.39,0,0,1-.38-.39.38.38,0,0,1,.38-.38.39.39,0,0,1,.39.38A.4.4,0,0,1,38.6,38.52Z"/><path class="cls-1" d="M37.67,38.49a.36.36,0,0,1,0-.72.36.36,0,1,1,0,.72Z"/><path class="cls-1" d="M36.75,38.47a.34.34,0,0,1,0-.68.34.34,0,0,1,0,.68Z"/><path class="cls-1" d="M35.82,38.45a.32.32,0,0,1-.32-.32.32.32,0,0,1,.32-.32.33.33,0,0,1,.32.32A.32.32,0,0,1,35.82,38.45Z"/><circle class="cls-1" cx="34.89" cy="38.13" r="0.3"/><circle class="cls-1" cx="33.96" cy="38.13" r="0.28"/><circle class="cls-1" cx="47.41" cy="39.06" r="0.46"/><circle class="cls-1" cx="46.49" cy="39.06" r="0.46"/><circle class="cls-1" cx="45.56" cy="39.06" r="0.46"/><circle class="cls-1" cx="44.63" cy="39.06" r="0.46"/><circle class="cls-1" cx="43.7" cy="39.06" r="0.46"/><circle class="cls-1" cx="42.78" cy="39.06" r="0.46"/><circle class="cls-1" cx="41.85" cy="39.06" r="0.46"/><circle class="cls-1" cx="40.92" cy="39.06" r="0.46"/><circle class="cls-1" cx="39.99" cy="39.06" r="0.44"/><path class="cls-1" d="M39.06,39.47a.41.41,0,1,1,.42-.41A.41.41,0,0,1,39.06,39.47Z"/><path class="cls-1" d="M38.14,39.44a.38.38,0,0,1-.39-.38.39.39,0,1,1,.77,0A.38.38,0,0,1,38.14,39.44Z"/><path class="cls-1" d="M37.21,39.42a.36.36,0,1,1,.36-.36A.36.36,0,0,1,37.21,39.42Z"/><path class="cls-1" d="M36.28,39.4a.34.34,0,1,1,.34-.34A.34.34,0,0,1,36.28,39.4Z"/><path class="cls-1" d="M35.35,39.37a.32.32,0,0,1,0-.63.32.32,0,1,1,0,.63Z"/><circle class="cls-1" cx="34.43" cy="39.06" r="0.3"/><circle class="cls-1" cx="33.5" cy="39.06" r="0.28"/><circle class="cls-1" cx="46.95" cy="39.99" r="0.46"/><circle class="cls-1" cx="46.02" cy="39.99" r="0.46"/><circle class="cls-1" cx="45.09" cy="39.99" r="0.46"/><circle class="cls-1" cx="44.17" cy="39.99" r="0.46"/><circle class="cls-1" cx="43.24" cy="39.99" r="0.46"/><circle class="cls-1" cx="42.31" cy="39.99" r="0.46"/><circle class="cls-1" cx="41.38" cy="39.99" r="0.44"/><circle class="cls-1" cx="40.46" cy="39.99" r="0.42"/><circle class="cls-1" cx="39.53" cy="39.99" r="0.39"/><path class="cls-1" d="M38.6,40.35a.37.37,0,0,1,0-.73.37.37,0,1,1,0,.73Z"/><path class="cls-1" d="M37.67,40.33a.35.35,0,0,1,0-.69.35.35,0,1,1,0,.69Z"/><circle class="cls-1" cx="36.75" cy="39.99" r="0.32"/><circle class="cls-1" cx="35.82" cy="39.99" r="0.3"/><circle class="cls-1" cx="34.89" cy="39.99" r="0.28"/><circle class="cls-1" cx="33.96" cy="39.99" r="0.26"/><circle class="cls-1" cx="47.41" cy="40.91" r="0.46"/><circle class="cls-1" cx="46.49" cy="40.91" r="0.46"/><circle class="cls-1" cx="45.56" cy="40.91" r="0.46"/><circle class="cls-1" cx="44.63" cy="40.91" r="0.46"/><circle class="cls-1" cx="43.7" cy="40.91" r="0.46"/><circle class="cls-1" cx="42.78" cy="40.91" r="0.46"/><circle class="cls-1" cx="41.85" cy="40.91" r="0.46"/><circle class="cls-1" cx="40.92" cy="40.91" r="0.43"/><path class="cls-1" d="M40,41.31a.4.4,0,1,1,.4-.4A.4.4,0,0,1,40,41.31Z"/><path class="cls-1" d="M39.06,41.29a.38.38,0,1,1,.38-.38A.38.38,0,0,1,39.06,41.29Z"/><path class="cls-1" d="M38.14,41.26a.35.35,0,1,1,0-.69.35.35,0,0,1,0,.69Z"/><path class="cls-1" d="M37.21,41.24a.33.33,0,1,1,.32-.33A.32.32,0,0,1,37.21,41.24Z"/><circle class="cls-1" cx="36.28" cy="40.91" r="0.3"/><circle class="cls-1" cx="35.35" cy="40.91" r="0.28"/><circle class="cls-1" cx="34.43" cy="40.91" r="0.26"/><circle class="cls-1" cx="33.5" cy="40.91" r="0.24"/><circle class="cls-1" cx="46.95" cy="41.84" r="0.46"/><circle class="cls-1" cx="46.02" cy="41.84" r="0.46"/><circle class="cls-1" cx="45.09" cy="41.84" r="0.46"/><circle class="cls-1" cx="44.17" cy="41.84" r="0.46"/><circle class="cls-1" cx="43.24" cy="41.84" r="0.46"/><circle class="cls-1" cx="42.31" cy="41.84" r="0.44"/><circle class="cls-1" cx="41.38" cy="41.84" r="0.41"/><path class="cls-1" d="M40.46,42.22a.38.38,0,1,1,.38-.38A.38.38,0,0,1,40.46,42.22Z"/><path class="cls-1" d="M39.53,42.19a.34.34,0,0,1-.35-.35.35.35,0,0,1,.35-.35.35.35,0,0,1,.35.35A.35.35,0,0,1,39.53,42.19Z"/><path class="cls-1" d="M38.6,42.17a.33.33,0,1,1,.33-.33A.33.33,0,0,1,38.6,42.17Z"/><path class="cls-1" d="M37.67,42.14a.3.3,0,1,1,.31-.3A.3.3,0,0,1,37.67,42.14Z"/><circle class="cls-1" cx="36.75" cy="41.84" r="0.28"/><circle class="cls-1" cx="35.82" cy="41.84" r="0.26"/><circle class="cls-1" cx="34.89" cy="41.84" r="0.24"/><circle class="cls-1" cx="33.96" cy="41.84" r="0.22"/><circle class="cls-1" cx="47.41" cy="42.77" r="0.46"/><circle class="cls-1" cx="46.49" cy="42.77" r="0.46"/><circle class="cls-1" cx="45.56" cy="42.77" r="0.46"/><circle class="cls-1" cx="44.63" cy="42.77" r="0.46"/><circle class="cls-1" cx="43.7" cy="42.77" r="0.46"/><circle class="cls-1" cx="42.78" cy="42.77" r="0.45"/><circle class="cls-1" cx="41.85" cy="42.77" r="0.42"/><circle class="cls-1" cx="40.92" cy="42.77" r="0.39"/><path class="cls-1" d="M40,43.13a.36.36,0,0,1,0-.72.36.36,0,1,1,0,.72Z"/><circle class="cls-1" cx="39.06" cy="42.77" r="0.34"/><circle class="cls-1" cx="38.14" cy="42.77" r="0.31"/><circle class="cls-1" cx="37.21" cy="42.77" r="0.29"/><circle class="cls-1" cx="36.28" cy="42.77" r="0.26"/><circle class="cls-1" cx="35.35" cy="42.77" r="0.24"/><circle class="cls-1" cx="34.43" cy="42.77" r="0.22"/><circle class="cls-1" cx="33.5" cy="42.77" r="0.2"/><circle class="cls-1" cx="46.95" cy="43.7" r="0.46"/><circle class="cls-1" cx="46.02" cy="43.7" r="0.46"/><circle class="cls-1" cx="45.09" cy="43.7" r="0.46"/><circle class="cls-1" cx="44.17" cy="43.7" r="0.46"/><circle class="cls-1" cx="43.24" cy="43.7" r="0.43"/><circle class="cls-1" cx="42.31" cy="43.7" r="0.4"/><path class="cls-1" d="M41.38,44.07a.38.38,0,0,1,0-.75.38.38,0,1,1,0,.75Z"/><path class="cls-1" d="M40.46,44a.35.35,0,1,1,.34-.34A.34.34,0,0,1,40.46,44Z"/><circle class="cls-1" cx="39.53" cy="43.7" r="0.32"/><circle class="cls-1" cx="38.6" cy="43.7" r="0.29"/><circle class="cls-1" cx="37.67" cy="43.7" r="0.27"/><circle class="cls-1" cx="36.75" cy="43.7" r="0.25"/><circle class="cls-1" cx="35.82" cy="43.7" r="0.22"/><circle class="cls-1" cx="34.89" cy="43.7" r="0.2"/><circle class="cls-1" cx="33.96" cy="43.7" r="0.19"/><circle class="cls-1" cx="47.41" cy="44.62" r="0.46"/><circle class="cls-1" cx="46.49" cy="44.62" r="0.46"/><circle class="cls-1" cx="45.56" cy="44.62" r="0.46"/><circle class="cls-1" cx="44.63" cy="44.62" r="0.46"/><circle class="cls-1" cx="43.7" cy="44.62" r="0.45"/><circle class="cls-1" cx="42.78" cy="44.62" r="0.42"/><path class="cls-1" d="M41.85,45a.39.39,0,1,1,0-.77.39.39,0,1,1,0,.77Z"/><path class="cls-1" d="M40.92,45a.36.36,0,1,1,.36-.36A.36.36,0,0,1,40.92,45Z"/><circle class="cls-1" cx="39.99" cy="44.62" r="0.33"/><circle class="cls-1" cx="39.06" cy="44.62" r="0.31"/><circle class="cls-1" cx="38.14" cy="44.62" r="0.28"/><circle class="cls-1" cx="37.21" cy="44.62" r="0.25"/><circle class="cls-1" cx="36.28" cy="44.62" r="0.23"/><circle class="cls-1" cx="35.35" cy="44.62" r="0.21"/><circle class="cls-1" cx="34.43" cy="44.62" r="0.19"/><path class="cls-1" d="M33.5,44.79a.17.17,0,0,1-.17-.17.17.17,0,0,1,.34,0A.17.17,0,0,1,33.5,44.79Z"/><circle class="cls-1" cx="46.95" cy="45.55" r="0.46"/><circle class="cls-1" cx="46.02" cy="45.55" r="0.46"/><circle class="cls-1" cx="45.09" cy="45.55" r="0.46"/><circle class="cls-1" cx="44.17" cy="45.55" r="0.44"/><path class="cls-1" d="M43.24,46a.41.41,0,0,1-.41-.41.41.41,0,0,1,.41-.41.42.42,0,0,1,.41.41A.41.41,0,0,1,43.24,46Z"/><path class="cls-1" d="M42.31,45.93a.37.37,0,0,1-.37-.38.36.36,0,0,1,.37-.37.37.37,0,0,1,.38.37A.38.38,0,0,1,42.31,45.93Z"/><path class="cls-1" d="M41.38,45.9a.35.35,0,1,1,.35-.35A.35.35,0,0,1,41.38,45.9Z"/><circle class="cls-1" cx="40.46" cy="45.55" r="0.32"/><circle class="cls-1" cx="39.53" cy="45.55" r="0.29"/><circle class="cls-1" cx="38.6" cy="45.55" r="0.26"/><circle class="cls-1" cx="37.67" cy="45.55" r="0.24"/><circle class="cls-1" cx="36.75" cy="45.55" r="0.22"/><circle class="cls-1" cx="35.82" cy="45.55" r="0.2"/><path class="cls-1" d="M34.89,45.73a.17.17,0,0,1-.17-.18.16.16,0,0,1,.17-.17.17.17,0,0,1,.18.17A.18.18,0,0,1,34.89,45.73Z"/><circle class="cls-1" cx="33.96" cy="45.55" r="0.15"/><circle class="cls-1" cx="47.41" cy="46.48" r="0.46"/><circle class="cls-1" cx="46.49" cy="46.48" r="0.46"/><circle class="cls-1" cx="45.56" cy="46.48" r="0.46"/><circle class="cls-1" cx="44.63" cy="46.48" r="0.46"/><path class="cls-1" d="M43.7,46.9a.43.43,0,0,1,0-.85.43.43,0,1,1,0,.85Z"/><path class="cls-1" d="M42.78,46.87a.39.39,0,1,1,.39-.39A.39.39,0,0,1,42.78,46.87Z"/><path class="cls-1" d="M41.85,46.84a.36.36,0,1,1,0-.72.36.36,0,0,1,0,.72Z"/><path class="cls-1" d="M40.92,46.81a.34.34,0,1,1,.33-.33A.33.33,0,0,1,40.92,46.81Z"/><circle class="cls-1" cx="39.99" cy="46.48" r="0.31"/><circle class="cls-1" cx="39.06" cy="46.48" r="0.28"/><circle class="cls-1" cx="38.14" cy="46.48" r="0.25"/><circle class="cls-1" cx="37.21" cy="46.48" r="0.23"/><circle class="cls-1" cx="36.28" cy="46.48" r="0.21"/><path class="cls-1" d="M35.35,46.66a.18.18,0,0,1,0-.36.18.18,0,1,1,0,.36Z"/><path class="cls-1" d="M34.43,46.64a.16.16,0,1,1,.16-.16A.16.16,0,0,1,34.43,46.64Z"/><path class="cls-1" d="M33.5,46.62a.14.14,0,1,1,.14-.14A.14.14,0,0,1,33.5,46.62Z"/><circle class="cls-1" cx="46.95" cy="47.41" r="0.46"/><circle class="cls-1" cx="46.02" cy="47.41" r="0.46"/><circle class="cls-1" cx="45.09" cy="47.41" r="0.45"/><circle class="cls-1" cx="44.17" cy="47.41" r="0.41"/><path class="cls-1" d="M43.24,47.79a.39.39,0,1,1,.38-.38A.38.38,0,0,1,43.24,47.79Z"/><path class="cls-1" d="M42.31,47.76a.36.36,0,0,1,0-.71.36.36,0,0,1,0,.71Z"/><circle class="cls-1" cx="41.38" cy="47.41" r="0.32"/><circle class="cls-1" cx="40.46" cy="47.41" r="0.3"/><circle class="cls-1" cx="39.53" cy="47.41" r="0.27"/><circle class="cls-1" cx="38.6" cy="47.41" r="0.24"/><circle class="cls-1" cx="37.67" cy="47.41" r="0.22"/><circle class="cls-1" cx="36.75" cy="47.41" r="0.19"/><circle class="cls-1" cx="35.82" cy="47.41" r="0.17"/><path class="cls-1" d="M34.89,47.56a.15.15,0,0,1-.15-.15.15.15,0,1,1,.3,0A.15.15,0,0,1,34.89,47.56Z"/><path class="cls-1" d="M34,47.54a.13.13,0,0,1-.13-.13.13.13,0,0,1,.13-.13.12.12,0,0,1,.13.13A.13.13,0,0,1,34,47.54Z"/><path class="cls-1" d="M41.85,48.68a.35.35,0,0,1-.34-.35.34.34,0,0,1,.68,0A.35.35,0,0,1,41.85,48.68Z"/><circle class="cls-1" cx="40.92" cy="48.33" r="0.31"/><circle class="cls-1" cx="39.99" cy="48.33" r="0.29"/><circle class="cls-1" cx="39.06" cy="48.33" r="0.26"/><circle class="cls-1" cx="38.14" cy="48.33" r="0.23"/><circle class="cls-1" cx="37.21" cy="48.33" r="0.21"/><circle class="cls-1" cx="36.28" cy="48.33" r="0.19"/><path class="cls-1" d="M35.35,48.5a.17.17,0,0,1-.16-.17.16.16,0,0,1,.16-.16.17.17,0,0,1,.17.16A.18.18,0,0,1,35.35,48.5Z"/><path class="cls-1" d="M34.43,48.48a.15.15,0,0,1-.14-.15.14.14,0,0,1,.28,0A.15.15,0,0,1,34.43,48.48Z"/><path class="cls-1" d="M33.5,48.45a.12.12,0,0,1-.12-.12.12.12,0,0,1,.24,0A.12.12,0,0,1,33.5,48.45Z"/></g></mask><filter id="luminosity-invert-noclip-2" x="45.72" y="-0.32" width="52.15" height="49" filterUnits="userSpaceOnUse" color-interpolation-filters="sRGB"><feColorMatrix values="-1 0 0 0 1 0 -1 0 0 1 0 0 -1 0 1 0 0 0 1 0" result="invert"/><feFlood flood-color="#fff" result="bg"/><feBlend in="invert" in2="bg"/></filter><mask id="mask-2" x="45.72" y="-0.32" width="52.15" height="49" maskUnits="userSpaceOnUse"><g class="cls-10"><circle class="cls-1" cx="96.81" cy="0.2" r="0.52"/><circle class="cls-1" cx="95.75" cy="0.2" r="0.52"/><circle class="cls-1" cx="94.68" cy="0.2" r="0.52"/><circle class="cls-1" cx="93.62" cy="0.2" r="0.52"/><circle class="cls-1" cx="92.55" cy="0.2" r="0.52"/><circle class="cls-1" cx="91.49" cy="0.2" r="0.52"/><circle class="cls-1" cx="90.42" cy="0.2" r="0.52"/><circle class="cls-1" cx="89.36" cy="0.2" r="0.5"/><path class="cls-1" d="M88.29.67a.47.47,0,1,1,0-.94.48.48,0,0,1,.48.47A.48.48,0,0,1,88.29.67Z"/><path class="cls-1" d="M87.23.64A.44.44,0,0,1,86.79.2a.43.43,0,0,1,.44-.44.44.44,0,0,1,.44.44A.44.44,0,0,1,87.23.64Z"/><path class="cls-1" d="M86.16.61A.41.41,0,0,1,85.75.2a.41.41,0,0,1,.41-.42.42.42,0,0,1,.42.42A.41.41,0,0,1,86.16.61Z"/><path class="cls-1" d="M85.1.59A.39.39,0,0,1,84.71.2a.38.38,0,0,1,.39-.39.39.39,0,0,1,.39.39A.4.4,0,0,1,85.1.59Z"/><path class="cls-1" d="M84,.56A.36.36,0,0,1,83.67.2.36.36,0,0,1,84-.16.37.37,0,0,1,84.4.2.37.37,0,0,1,84,.56Z"/><circle class="cls-1" cx="82.97" cy="0.2" r="0.34"/><circle class="cls-1" cx="81.9" cy="0.2" r="0.32"/><circle class="cls-1" cx="97.35" cy="1.26" r="0.52"/><circle class="cls-1" cx="96.28" cy="1.26" r="0.52"/><circle class="cls-1" cx="95.22" cy="1.26" r="0.52"/><circle class="cls-1" cx="94.15" cy="1.26" r="0.52"/><circle class="cls-1" cx="93.09" cy="1.26" r="0.52"/><circle class="cls-1" cx="92.02" cy="1.26" r="0.52"/><circle class="cls-1" cx="90.96" cy="1.26" r="0.52"/><circle class="cls-1" cx="89.89" cy="1.26" r="0.52"/><circle class="cls-1" cx="88.83" cy="1.26" r="0.5"/><path class="cls-1" d="M87.76,1.74a.48.48,0,0,1-.47-.48.47.47,0,0,1,.94,0A.48.48,0,0,1,87.76,1.74Z"/><path class="cls-1" d="M86.7,1.71a.45.45,0,1,1,.44-.45A.45.45,0,0,1,86.7,1.71Z"/><path class="cls-1" d="M85.63,1.68a.42.42,0,0,1-.42-.42.42.42,0,0,1,.84,0A.42.42,0,0,1,85.63,1.68Z"/><path class="cls-1" d="M84.57,1.65a.38.38,0,0,1-.39-.39.39.39,0,0,1,.39-.39.4.4,0,0,1,.39.39A.39.39,0,0,1,84.57,1.65Z"/><path class="cls-1" d="M83.5,1.63a.37.37,0,0,1-.36-.37.36.36,0,0,1,.72,0A.37.37,0,0,1,83.5,1.63Z"/><circle class="cls-1" cx="82.44" cy="1.26" r="0.34"/><circle class="cls-1" cx="81.37" cy="1.26" r="0.32"/><circle class="cls-1" cx="96.81" cy="2.33" r="0.52"/><circle class="cls-1" cx="95.75" cy="2.33" r="0.52"/><circle class="cls-1" cx="94.68" cy="2.33" r="0.52"/><circle class="cls-1" cx="93.62" cy="2.33" r="0.52"/><circle class="cls-1" cx="92.55" cy="2.33" r="0.52"/><circle class="cls-1" cx="91.49" cy="2.33" r="0.52"/><circle class="cls-1" cx="90.42" cy="2.33" r="0.51"/><circle class="cls-1" cx="89.36" cy="2.33" r="0.48"/><circle class="cls-1" cx="88.29" cy="2.33" r="0.45"/><path class="cls-1" d="M87.23,2.75a.42.42,0,1,1,.42-.42A.42.42,0,0,1,87.23,2.75Z"/><path class="cls-1" d="M86.16,2.72a.39.39,0,1,1,.4-.39A.39.39,0,0,1,86.16,2.72Z"/><circle class="cls-1" cx="85.1" cy="2.33" r="0.37"/><circle class="cls-1" cx="84.03" cy="2.33" r="0.34"/><circle class="cls-1" cx="82.97" cy="2.33" r="0.32"/><circle class="cls-1" cx="81.9" cy="2.33" r="0.3"/><circle class="cls-1" cx="97.35" cy="3.39" r="0.52"/><circle class="cls-1" cx="96.28" cy="3.39" r="0.52"/><circle class="cls-1" cx="95.22" cy="3.39" r="0.52"/><circle class="cls-1" cx="94.15" cy="3.39" r="0.52"/><circle class="cls-1" cx="93.09" cy="3.39" r="0.52"/><circle class="cls-1" cx="92.02" cy="3.39" r="0.52"/><circle class="cls-1" cx="90.96" cy="3.39" r="0.52"/><circle class="cls-1" cx="89.89" cy="3.39" r="0.49"/><path class="cls-1" d="M88.83,3.85a.46.46,0,1,1,.45-.46A.45.45,0,0,1,88.83,3.85Z"/><path class="cls-1" d="M87.76,3.82a.43.43,0,1,1,.43-.43A.43.43,0,0,1,87.76,3.82Z"/><path class="cls-1" d="M86.7,3.79a.4.4,0,0,1,0-.8.4.4,0,0,1,0,.8Z"/><path class="cls-1" d="M85.63,3.76a.37.37,0,0,1-.37-.37A.38.38,0,0,1,85.63,3a.37.37,0,0,1,.37.37A.36.36,0,0,1,85.63,3.76Z"/><circle class="cls-1" cx="84.57" cy="3.39" r="0.34"/><circle class="cls-1" cx="83.5" cy="3.39" r="0.32"/><circle class="cls-1" cx="82.44" cy="3.39" r="0.3"/><circle class="cls-1" cx="81.37" cy="3.39" r="0.27"/><circle class="cls-1" cx="96.81" cy="4.46" r="0.52"/><circle class="cls-1" cx="95.75" cy="4.46" r="0.52"/><circle class="cls-1" cx="94.68" cy="4.46" r="0.52"/><circle class="cls-1" cx="93.62" cy="4.46" r="0.52"/><circle class="cls-1" cx="92.55" cy="4.46" r="0.52"/><circle class="cls-1" cx="91.49" cy="4.46" r="0.5"/><circle class="cls-1" cx="90.42" cy="4.46" r="0.47"/><path class="cls-1" d="M89.36,4.9a.44.44,0,1,1,.44-.44A.44.44,0,0,1,89.36,4.9Z"/><path class="cls-1" d="M88.29,4.86a.41.41,0,0,1,0-.81.41.41,0,1,1,0,.81Z"/><path class="cls-1" d="M87.23,4.83a.37.37,0,0,1-.38-.37.38.38,0,0,1,.38-.38.37.37,0,0,1,.37.38A.36.36,0,0,1,87.23,4.83Z"/><path class="cls-1" d="M86.16,4.81a.35.35,0,1,1,.35-.35A.35.35,0,0,1,86.16,4.81Z"/><circle class="cls-1" cx="85.1" cy="4.46" r="0.32"/><circle class="cls-1" cx="84.03" cy="4.46" r="0.3"/><circle class="cls-1" cx="82.97" cy="4.46" r="0.27"/><circle class="cls-1" cx="81.9" cy="4.46" r="0.25"/><circle class="cls-1" cx="97.35" cy="5.52" r="0.52"/><circle class="cls-1" cx="96.28" cy="5.52" r="0.52"/><circle class="cls-1" cx="95.22" cy="5.52" r="0.52"/><circle class="cls-1" cx="94.15" cy="5.52" r="0.52"/><circle class="cls-1" cx="93.09" cy="5.52" r="0.52"/><circle class="cls-1" cx="92.02" cy="5.52" r="0.52"/><circle class="cls-1" cx="90.96" cy="5.52" r="0.48"/><circle class="cls-1" cx="89.89" cy="5.52" r="0.45"/><path class="cls-1" d="M88.83,5.94a.42.42,0,0,1-.42-.42.41.41,0,0,1,.42-.41.41.41,0,0,1,.41.41A.41.41,0,0,1,88.83,5.94Z"/><circle class="cls-1" cx="87.76" cy="5.52" r="0.39"/><circle class="cls-1" cx="86.7" cy="5.52" r="0.36"/><circle class="cls-1" cx="85.63" cy="5.52" r="0.33"/><circle class="cls-1" cx="84.57" cy="5.52" r="0.3"/><circle class="cls-1" cx="83.5" cy="5.52" r="0.27"/><circle class="cls-1" cx="82.44" cy="5.52" r="0.25"/><circle class="cls-1" cx="81.37" cy="5.52" r="0.23"/><circle class="cls-1" cx="96.81" cy="6.59" r="0.52"/><circle class="cls-1" cx="95.75" cy="6.59" r="0.52"/><circle class="cls-1" cx="94.68" cy="6.59" r="0.52"/><circle class="cls-1" cx="93.62" cy="6.59" r="0.52"/><circle class="cls-1" cx="92.55" cy="6.59" r="0.5"/><circle class="cls-1" cx="91.49" cy="6.59" r="0.46"/><path class="cls-1" d="M90.42,7a.43.43,0,0,1,0-.86.43.43,0,0,1,0,.86Z"/><path class="cls-1" d="M89.36,7a.4.4,0,1,1,.4-.4A.4.4,0,0,1,89.36,7Z"/><circle class="cls-1" cx="88.29" cy="6.59" r="0.37"/><circle class="cls-1" cx="87.23" cy="6.59" r="0.34"/><circle class="cls-1" cx="86.16" cy="6.59" r="0.31"/><circle class="cls-1" cx="85.1" cy="6.59" r="0.28"/><circle class="cls-1" cx="84.03" cy="6.59" r="0.26"/><circle class="cls-1" cx="82.97" cy="6.59" r="0.23"/><circle class="cls-1" cx="81.9" cy="6.59" r="0.21"/><circle class="cls-1" cx="97.35" cy="7.65" r="0.52"/><circle class="cls-1" cx="96.28" cy="7.65" r="0.52"/><circle class="cls-1" cx="95.22" cy="7.65" r="0.52"/><circle class="cls-1" cx="94.15" cy="7.65" r="0.52"/><circle class="cls-1" cx="93.09" cy="7.65" r="0.52"/><circle class="cls-1" cx="92.02" cy="7.65" r="0.48"/><path class="cls-1" d="M91,8.1a.45.45,0,1,1,.44-.45A.45.45,0,0,1,91,8.1Z"/><path class="cls-1" d="M89.89,8.07a.41.41,0,0,1-.41-.42.41.41,0,0,1,.82,0A.41.41,0,0,1,89.89,8.07Z"/><circle class="cls-1" cx="88.83" cy="7.65" r="0.38"/><circle class="cls-1" cx="87.76" cy="7.65" r="0.35"/><circle class="cls-1" cx="86.7" cy="7.65" r="0.32"/><circle class="cls-1" cx="85.63" cy="7.65" r="0.29"/><circle class="cls-1" cx="84.57" cy="7.65" r="0.27"/><circle class="cls-1" cx="83.5" cy="7.65" r="0.24"/><circle class="cls-1" cx="82.44" cy="7.65" r="0.22"/><path class="cls-1" d="M81.37,7.85a.19.19,0,0,1-.19-.2.19.19,0,0,1,.19-.19.2.2,0,1,1,0,.39Z"/><circle class="cls-1" cx="96.81" cy="8.72" r="0.52"/><circle class="cls-1" cx="95.75" cy="8.72" r="0.52"/><circle class="cls-1" cx="94.68" cy="8.72" r="0.52"/><circle class="cls-1" cx="93.62" cy="8.72" r="0.5"/><path class="cls-1" d="M92.55,9.18a.46.46,0,0,1-.46-.46.47.47,0,1,1,.93,0A.46.46,0,0,1,92.55,9.18Z"/><path class="cls-1" d="M91.49,9.15a.43.43,0,1,1,.43-.43A.43.43,0,0,1,91.49,9.15Z"/><path class="cls-1" d="M90.42,9.12a.4.4,0,1,1,.4-.4A.4.4,0,0,1,90.42,9.12Z"/><circle class="cls-1" cx="89.36" cy="8.72" r="0.37"/><circle class="cls-1" cx="88.29" cy="8.72" r="0.33"/><circle class="cls-1" cx="87.23" cy="8.72" r="0.3"/><circle class="cls-1" cx="86.16" cy="8.72" r="0.28"/><circle class="cls-1" cx="85.1" cy="8.72" r="0.25"/><circle class="cls-1" cx="84.03" cy="8.72" r="0.22"/><path class="cls-1" d="M83,8.92a.2.2,0,1,1,.2-.2A.2.2,0,0,1,83,8.92Z"/><circle class="cls-1" cx="81.9" cy="8.72" r="0.18"/><circle class="cls-1" cx="97.35" cy="9.78" r="0.52"/><circle class="cls-1" cx="96.28" cy="9.78" r="0.52"/><circle class="cls-1" cx="95.22" cy="9.78" r="0.52"/><circle class="cls-1" cx="94.15" cy="9.78" r="0.52"/><path class="cls-1" d="M93.09,10.27a.49.49,0,0,1-.49-.49.49.49,0,0,1,1,0A.49.49,0,0,1,93.09,10.27Z"/><path class="cls-1" d="M92,10.23a.45.45,0,1,1,.45-.45A.45.45,0,0,1,92,10.23Z"/><path class="cls-1" d="M91,10.2a.42.42,0,0,1-.42-.42A.41.41,0,0,1,91,9.37a.41.41,0,0,1,.41.41A.41.41,0,0,1,91,10.2Z"/><path class="cls-1" d="M89.89,10.17a.39.39,0,0,1-.38-.39.38.38,0,1,1,.76,0A.39.39,0,0,1,89.89,10.17Z"/><circle class="cls-1" cx="88.83" cy="9.78" r="0.35"/><circle class="cls-1" cx="87.76" cy="9.78" r="0.32"/><circle class="cls-1" cx="86.7" cy="9.78" r="0.29"/><circle class="cls-1" cx="85.63" cy="9.78" r="0.26"/><circle class="cls-1" cx="84.57" cy="9.78" r="0.24"/><path class="cls-1" d="M83.5,10a.21.21,0,0,1-.21-.21.22.22,0,0,1,.21-.21.21.21,0,0,1,.21.21A.21.21,0,0,1,83.5,10Z"/><path class="cls-1" d="M82.44,10a.18.18,0,0,1-.19-.19.18.18,0,0,1,.19-.18.18.18,0,0,1,.18.18A.18.18,0,0,1,82.44,10Z"/><path class="cls-1" d="M81.37,9.94a.16.16,0,1,1,.16-.16A.16.16,0,0,1,81.37,9.94Z"/><circle class="cls-1" cx="96.81" cy="10.85" r="0.52"/><circle class="cls-1" cx="95.75" cy="10.85" r="0.52"/><circle class="cls-1" cx="94.68" cy="10.85" r="0.51"/><circle class="cls-1" cx="93.62" cy="10.85" r="0.48"/><path class="cls-1" d="M92.55,11.29a.44.44,0,0,1-.44-.44.44.44,0,0,1,.44-.44.43.43,0,0,1,.44.44A.44.44,0,0,1,92.55,11.29Z"/><path class="cls-1" d="M91.49,11.25a.41.41,0,1,1,.4-.4A.4.4,0,0,1,91.49,11.25Z"/><circle class="cls-1" cx="90.42" cy="10.85" r="0.37"/><circle class="cls-1" cx="89.36" cy="10.85" r="0.34"/><circle class="cls-1" cx="88.29" cy="10.85" r="0.31"/><circle class="cls-1" cx="87.23" cy="10.85" r="0.28"/><circle class="cls-1" cx="86.16" cy="10.85" r="0.25"/><circle class="cls-1" cx="85.1" cy="10.85" r="0.22"/><circle class="cls-1" cx="84.03" cy="10.85" r="0.2"/><path class="cls-1" d="M83,11a.18.18,0,0,1-.18-.17.18.18,0,0,1,.18-.18.17.17,0,0,1,.17.18A.17.17,0,0,1,83,11Z"/><path class="cls-1" d="M81.9,11a.15.15,0,0,1-.15-.15.15.15,0,0,1,.15-.15.14.14,0,0,1,.15.15A.15.15,0,0,1,81.9,11Z"/><path class="cls-1" d="M91,12.31a.4.4,0,1,1,0-.79.4.4,0,0,1,0,.79Z"/><circle class="cls-1" cx="89.89" cy="11.91" r="0.36"/><circle class="cls-1" cx="88.83" cy="11.91" r="0.33"/><circle class="cls-1" cx="87.76" cy="11.91" r="0.3"/><circle class="cls-1" cx="86.7" cy="11.91" r="0.27"/><circle class="cls-1" cx="85.63" cy="11.91" r="0.24"/><circle class="cls-1" cx="84.57" cy="11.91" r="0.21"/><path class="cls-1" d="M83.5,12.1a.18.18,0,0,1-.18-.19.18.18,0,0,1,.18-.18.19.19,0,1,1,0,.37Z"/><path class="cls-1" d="M82.44,12.07a.16.16,0,1,1,0-.32.16.16,0,1,1,0,.32Z"/><path class="cls-1" d="M81.37,12.05a.14.14,0,0,1-.14-.14.15.15,0,0,1,.14-.14.14.14,0,0,1,.14.14A.14.14,0,0,1,81.37,12.05Z"/></g></mask><filter id="luminosity-invert-noclip-3" x="98.21" y="0" width="47.65" height="48.68" filterUnits="userSpaceOnUse" color-interpolation-filters="sRGB"><feColorMatrix values="-1 0 0 0 1 0 -1 0 0 1 0 0 -1 0 1 0 0 0 1 0" result="invert"/><feFlood flood-color="#fff" result="bg"/><feBlend in="invert" in2="bg"/></filter><mask id="mask-3" x="98.21" y="0" width="47.65" height="48.68" maskUnits="userSpaceOnUse"><g class="cls-9"><circle class="cls-1" cx="144.95" cy="38.13" r="0.46"/><circle class="cls-1" cx="144.02" cy="38.13" r="0.46"/><circle class="cls-1" cx="143.09" cy="38.13" r="0.46"/><circle class="cls-1" cx="142.17" cy="38.13" r="0.46"/><circle class="cls-1" cx="141.24" cy="38.13" r="0.46"/><circle class="cls-1" cx="140.31" cy="38.13" r="0.46"/><circle class="cls-1" cx="139.38" cy="38.13" r="0.46"/><circle class="cls-1" cx="138.46" cy="38.13" r="0.44"/><path class="cls-1" d="M137.53,38.54a.41.41,0,1,1,.41-.41A.41.41,0,0,1,137.53,38.54Z"/><path class="cls-1" d="M136.6,38.52a.39.39,0,0,1-.38-.39.38.38,0,0,1,.38-.38.39.39,0,0,1,.39.38A.4.4,0,0,1,136.6,38.52Z"/><path class="cls-1" d="M135.67,38.49a.36.36,0,1,1,0-.72.36.36,0,1,1,0,.72Z"/><path class="cls-1" d="M134.75,38.47a.34.34,0,1,1,0-.68.34.34,0,1,1,0,.68Z"/><path class="cls-1" d="M133.82,38.45a.32.32,0,0,1-.32-.32.32.32,0,0,1,.32-.32.33.33,0,0,1,.32.32A.32.32,0,0,1,133.82,38.45Z"/><circle class="cls-1" cx="132.89" cy="38.13" r="0.3"/><circle class="cls-1" cx="131.96" cy="38.13" r="0.28"/><circle class="cls-1" cx="145.41" cy="39.06" r="0.46"/><circle class="cls-1" cx="144.49" cy="39.06" r="0.46"/><circle class="cls-1" cx="143.56" cy="39.06" r="0.46"/><circle class="cls-1" cx="142.63" cy="39.06" r="0.46"/><circle class="cls-1" cx="141.7" cy="39.06" r="0.46"/><circle class="cls-1" cx="140.78" cy="39.06" r="0.46"/><circle class="cls-1" cx="139.85" cy="39.06" r="0.46"/><circle class="cls-1" cx="138.92" cy="39.06" r="0.46"/><circle class="cls-1" cx="137.99" cy="39.06" r="0.44"/><path class="cls-1" d="M137.06,39.47a.41.41,0,1,1,.42-.41A.41.41,0,0,1,137.06,39.47Z"/><path class="cls-1" d="M136.14,39.44a.38.38,0,0,1-.39-.38.39.39,0,1,1,.77,0A.38.38,0,0,1,136.14,39.44Z"/><path class="cls-1" d="M135.21,39.42a.36.36,0,1,1,.36-.36A.36.36,0,0,1,135.21,39.42Z"/><path class="cls-1" d="M134.28,39.4a.34.34,0,1,1,.34-.34A.34.34,0,0,1,134.28,39.4Z"/><path class="cls-1" d="M133.35,39.37a.32.32,0,0,1,0-.63.32.32,0,1,1,0,.63Z"/><circle class="cls-1" cx="132.43" cy="39.06" r="0.3"/><circle class="cls-1" cx="131.5" cy="39.06" r="0.28"/><circle class="cls-1" cx="144.95" cy="39.99" r="0.46"/><circle class="cls-1" cx="144.02" cy="39.99" r="0.46"/><circle class="cls-1" cx="143.09" cy="39.99" r="0.46"/><circle class="cls-1" cx="142.17" cy="39.99" r="0.46"/><circle class="cls-1" cx="141.24" cy="39.99" r="0.46"/><circle class="cls-1" cx="140.31" cy="39.99" r="0.46"/><circle class="cls-1" cx="139.38" cy="39.99" r="0.44"/><circle class="cls-1" cx="138.46" cy="39.99" r="0.42"/><circle class="cls-1" cx="137.53" cy="39.99" r="0.39"/><path class="cls-1" d="M136.6,40.35a.37.37,0,0,1,0-.73.37.37,0,1,1,0,.73Z"/><path class="cls-1" d="M135.67,40.33a.35.35,0,0,1,0-.69.35.35,0,1,1,0,.69Z"/><circle class="cls-1" cx="134.75" cy="39.99" r="0.32"/><circle class="cls-1" cx="133.82" cy="39.99" r="0.3"/><circle class="cls-1" cx="132.89" cy="39.99" r="0.28"/><circle class="cls-1" cx="131.96" cy="39.99" r="0.26"/><circle class="cls-1" cx="145.41" cy="40.91" r="0.46"/><circle class="cls-1" cx="144.49" cy="40.91" r="0.46"/><circle class="cls-1" cx="143.56" cy="40.91" r="0.46"/><circle class="cls-1" cx="142.63" cy="40.91" r="0.46"/><circle class="cls-1" cx="141.7" cy="40.91" r="0.46"/><circle class="cls-1" cx="140.78" cy="40.91" r="0.46"/><circle class="cls-1" cx="139.85" cy="40.91" r="0.46"/><circle class="cls-1" cx="138.92" cy="40.91" r="0.43"/><path class="cls-1" d="M138,41.31a.4.4,0,1,1,.4-.4A.4.4,0,0,1,138,41.31Z"/><path class="cls-1" d="M137.06,41.29a.38.38,0,1,1,.38-.38A.38.38,0,0,1,137.06,41.29Z"/><path class="cls-1" d="M136.14,41.26a.35.35,0,1,1,0-.69.35.35,0,0,1,0,.69Z"/><path class="cls-1" d="M135.21,41.24a.33.33,0,1,1,.32-.33A.32.32,0,0,1,135.21,41.24Z"/><circle class="cls-1" cx="134.28" cy="40.91" r="0.3"/><circle class="cls-1" cx="133.35" cy="40.91" r="0.28"/><circle class="cls-1" cx="132.43" cy="40.91" r="0.26"/><circle class="cls-1" cx="131.5" cy="40.91" r="0.24"/><circle class="cls-1" cx="144.95" cy="41.84" r="0.46"/><circle class="cls-1" cx="144.02" cy="41.84" r="0.46"/><circle class="cls-1" cx="143.09" cy="41.84" r="0.46"/><circle class="cls-1" cx="142.17" cy="41.84" r="0.46"/><circle class="cls-1" cx="141.24" cy="41.84" r="0.46"/><circle class="cls-1" cx="140.31" cy="41.84" r="0.44"/><circle class="cls-1" cx="139.38" cy="41.84" r="0.41"/><path class="cls-1" d="M138.46,42.22a.38.38,0,1,1,.38-.38A.38.38,0,0,1,138.46,42.22Z"/><path class="cls-1" d="M137.53,42.19a.34.34,0,0,1-.35-.35.35.35,0,0,1,.35-.35.35.35,0,0,1,.35.35A.35.35,0,0,1,137.53,42.19Z"/><path class="cls-1" d="M136.6,42.17a.33.33,0,1,1,.33-.33A.33.33,0,0,1,136.6,42.17Z"/><path class="cls-1" d="M135.67,42.14a.3.3,0,1,1,.31-.3A.3.3,0,0,1,135.67,42.14Z"/><circle class="cls-1" cx="134.75" cy="41.84" r="0.28"/><circle class="cls-1" cx="133.82" cy="41.84" r="0.26"/><circle class="cls-1" cx="132.89" cy="41.84" r="0.24"/><circle class="cls-1" cx="131.96" cy="41.84" r="0.22"/><circle class="cls-1" cx="145.41" cy="42.77" r="0.46"/><circle class="cls-1" cx="144.49" cy="42.77" r="0.46"/><circle class="cls-1" cx="143.56" cy="42.77" r="0.46"/><circle class="cls-1" cx="142.63" cy="42.77" r="0.46"/><circle class="cls-1" cx="141.7" cy="42.77" r="0.46"/><circle class="cls-1" cx="140.78" cy="42.77" r="0.45"/><circle class="cls-1" cx="139.85" cy="42.77" r="0.42"/><circle class="cls-1" cx="138.92" cy="42.77" r="0.39"/><path class="cls-1" d="M138,43.13a.36.36,0,0,1,0-.72.36.36,0,1,1,0,.72Z"/><circle class="cls-1" cx="137.06" cy="42.77" r="0.34"/><circle class="cls-1" cx="136.14" cy="42.77" r="0.31"/><circle class="cls-1" cx="135.21" cy="42.77" r="0.29"/><circle class="cls-1" cx="134.28" cy="42.77" r="0.26"/><circle class="cls-1" cx="133.35" cy="42.77" r="0.24"/><circle class="cls-1" cx="132.43" cy="42.77" r="0.22"/><circle class="cls-1" cx="131.5" cy="42.77" r="0.2"/><circle class="cls-1" cx="144.95" cy="43.7" r="0.46"/><circle class="cls-1" cx="144.02" cy="43.7" r="0.46"/><circle class="cls-1" cx="143.09" cy="43.7" r="0.46"/><circle class="cls-1" cx="142.17" cy="43.7" r="0.46"/><circle class="cls-1" cx="141.24" cy="43.7" r="0.43"/><circle class="cls-1" cx="140.31" cy="43.7" r="0.4"/><path class="cls-1" d="M139.38,44.07a.38.38,0,0,1,0-.75.38.38,0,1,1,0,.75Z"/><path class="cls-1" d="M138.46,44a.35.35,0,1,1,.34-.34A.34.34,0,0,1,138.46,44Z"/><circle class="cls-1" cx="137.53" cy="43.7" r="0.32"/><circle class="cls-1" cx="136.6" cy="43.7" r="0.29"/><circle class="cls-1" cx="135.67" cy="43.7" r="0.27"/><circle class="cls-1" cx="134.75" cy="43.7" r="0.25"/><circle class="cls-1" cx="133.82" cy="43.7" r="0.22"/><circle class="cls-1" cx="132.89" cy="43.7" r="0.2"/><circle class="cls-1" cx="131.96" cy="43.7" r="0.19"/><circle class="cls-1" cx="145.41" cy="44.62" r="0.46"/><circle class="cls-1" cx="144.49" cy="44.62" r="0.46"/><circle class="cls-1" cx="143.56" cy="44.62" r="0.46"/><circle class="cls-1" cx="142.63" cy="44.62" r="0.46"/><circle class="cls-1" cx="141.7" cy="44.62" r="0.45"/><circle class="cls-1" cx="140.78" cy="44.62" r="0.42"/><path class="cls-1" d="M139.85,45a.39.39,0,1,1,0-.77.39.39,0,1,1,0,.77Z"/><path class="cls-1" d="M138.92,45a.36.36,0,1,1,.36-.36A.36.36,0,0,1,138.92,45Z"/><circle class="cls-1" cx="137.99" cy="44.62" r="0.33"/><circle class="cls-1" cx="137.06" cy="44.62" r="0.31"/><circle class="cls-1" cx="136.14" cy="44.62" r="0.28"/><circle class="cls-1" cx="135.21" cy="44.62" r="0.25"/><circle class="cls-1" cx="134.28" cy="44.62" r="0.23"/><circle class="cls-1" cx="133.35" cy="44.62" r="0.21"/><circle class="cls-1" cx="132.43" cy="44.62" r="0.19"/><path class="cls-1" d="M131.5,44.79a.17.17,0,0,1-.17-.17.17.17,0,1,1,.34,0A.17.17,0,0,1,131.5,44.79Z"/><circle class="cls-1" cx="144.95" cy="45.55" r="0.46"/><circle class="cls-1" cx="144.02" cy="45.55" r="0.46"/><circle class="cls-1" cx="143.09" cy="45.55" r="0.46"/><circle class="cls-1" cx="142.17" cy="45.55" r="0.44"/><path class="cls-1" d="M141.24,46a.41.41,0,0,1-.41-.41.41.41,0,0,1,.41-.41.42.42,0,0,1,.41.41A.41.41,0,0,1,141.24,46Z"/><path class="cls-1" d="M140.31,45.93a.37.37,0,0,1-.37-.38.36.36,0,0,1,.37-.37.37.37,0,0,1,.38.37A.38.38,0,0,1,140.31,45.93Z"/><path class="cls-1" d="M139.38,45.9a.35.35,0,1,1,.35-.35A.35.35,0,0,1,139.38,45.9Z"/><circle class="cls-1" cx="138.46" cy="45.55" r="0.32"/><circle class="cls-1" cx="137.53" cy="45.55" r="0.29"/><circle class="cls-1" cx="136.6" cy="45.55" r="0.26"/><circle class="cls-1" cx="135.67" cy="45.55" r="0.24"/><circle class="cls-1" cx="134.75" cy="45.55" r="0.22"/><circle class="cls-1" cx="133.82" cy="45.55" r="0.2"/><path class="cls-1" d="M132.89,45.73a.17.17,0,0,1-.17-.18.16.16,0,0,1,.17-.17.17.17,0,0,1,.18.17A.18.18,0,0,1,132.89,45.73Z"/><circle class="cls-1" cx="131.96" cy="45.55" r="0.15"/><circle class="cls-1" cx="145.41" cy="46.48" r="0.46"/><circle class="cls-1" cx="144.49" cy="46.48" r="0.46"/><circle class="cls-1" cx="143.56" cy="46.48" r="0.46"/><circle class="cls-1" cx="142.63" cy="46.48" r="0.46"/><path class="cls-1" d="M141.7,46.9a.43.43,0,0,1,0-.85.43.43,0,1,1,0,.85Z"/><path class="cls-1" d="M140.78,46.87a.39.39,0,1,1,.39-.39A.39.39,0,0,1,140.78,46.87Z"/><path class="cls-1" d="M139.85,46.84a.36.36,0,1,1,0-.72.36.36,0,1,1,0,.72Z"/><path class="cls-1" d="M138.92,46.81a.34.34,0,1,1,.33-.33A.33.33,0,0,1,138.92,46.81Z"/><circle class="cls-1" cx="137.99" cy="46.48" r="0.31"/><circle class="cls-1" cx="137.06" cy="46.48" r="0.28"/><circle class="cls-1" cx="136.14" cy="46.48" r="0.25"/><circle class="cls-1" cx="135.21" cy="46.48" r="0.23"/><circle class="cls-1" cx="134.28" cy="46.48" r="0.21"/><path class="cls-1" d="M133.35,46.66a.18.18,0,0,1,0-.36.18.18,0,1,1,0,.36Z"/><path class="cls-1" d="M132.43,46.64a.16.16,0,1,1,.16-.16A.16.16,0,0,1,132.43,46.64Z"/><path class="cls-1" d="M131.5,46.62a.14.14,0,1,1,.14-.14A.14.14,0,0,1,131.5,46.62Z"/><circle class="cls-1" cx="144.95" cy="47.41" r="0.46"/><circle class="cls-1" cx="144.02" cy="47.41" r="0.46"/><circle class="cls-1" cx="143.09" cy="47.41" r="0.45"/><circle class="cls-1" cx="142.17" cy="47.41" r="0.41"/><path class="cls-1" d="M141.24,47.79a.39.39,0,1,1,.38-.38A.38.38,0,0,1,141.24,47.79Z"/><path class="cls-1" d="M140.31,47.76a.36.36,0,0,1,0-.71.36.36,0,0,1,0,.71Z"/><circle class="cls-1" cx="139.38" cy="47.41" r="0.32"/><circle class="cls-1" cx="138.46" cy="47.41" r="0.3"/><circle class="cls-1" cx="137.53" cy="47.41" r="0.27"/><circle class="cls-1" cx="136.6" cy="47.41" r="0.24"/><circle class="cls-1" cx="135.67" cy="47.41" r="0.22"/><circle class="cls-1" cx="134.75" cy="47.41" r="0.19"/><circle class="cls-1" cx="133.82" cy="47.41" r="0.17"/><path class="cls-1" d="M132.89,47.56a.15.15,0,0,1-.15-.15.15.15,0,1,1,.3,0A.15.15,0,0,1,132.89,47.56Z"/><path class="cls-1" d="M132,47.54a.13.13,0,0,1-.13-.13.13.13,0,0,1,.13-.13.12.12,0,0,1,.13.13A.13.13,0,0,1,132,47.54Z"/><path class="cls-1" d="M139.85,48.68a.35.35,0,0,1-.34-.35.34.34,0,1,1,.68,0A.35.35,0,0,1,139.85,48.68Z"/><circle class="cls-1" cx="138.92" cy="48.33" r="0.31"/><circle class="cls-1" cx="137.99" cy="48.33" r="0.29"/><circle class="cls-1" cx="137.06" cy="48.33" r="0.26"/><circle class="cls-1" cx="136.14" cy="48.33" r="0.23"/><circle class="cls-1" cx="135.21" cy="48.33" r="0.21"/><circle class="cls-1" cx="134.28" cy="48.33" r="0.19"/><path class="cls-1" d="M133.35,48.5a.17.17,0,0,1-.16-.17.16.16,0,0,1,.16-.16.17.17,0,0,1,.17.16A.18.18,0,0,1,133.35,48.5Z"/><path class="cls-1" d="M132.43,48.48a.15.15,0,0,1-.14-.15.14.14,0,0,1,.28,0A.15.15,0,0,1,132.43,48.48Z"/><path class="cls-1" d="M131.5,48.45a.12.12,0,0,1-.12-.12.12.12,0,1,1,.24,0A.12.12,0,0,1,131.5,48.45Z"/></g></mask><filter id="luminosity-invert-noclip-4" x="147.32" y="0" width="47.55" height="48.68" filterUnits="userSpaceOnUse" color-interpolation-filters="sRGB"><feColorMatrix values="-1 0 0 0 1 0 -1 0 0 1 0 0 -1 0 1 0 0 0 1 0" result="invert"/><feFlood flood-color="#fff" result="bg"/><feBlend in="invert" in2="bg"/></filter><mask id="mask-4" x="147.32" y="0" width="47.55" height="48.68" maskUnits="userSpaceOnUse"><g class="cls-8"><circle class="cls-1" cx="193.95" cy="38.13" r="0.46"/><circle class="cls-1" cx="193.02" cy="38.13" r="0.46"/><circle class="cls-1" cx="192.09" cy="38.13" r="0.46"/><circle class="cls-1" cx="191.17" cy="38.13" r="0.46"/><circle class="cls-1" cx="190.24" cy="38.13" r="0.46"/><circle class="cls-1" cx="189.31" cy="38.13" r="0.46"/><circle class="cls-1" cx="188.38" cy="38.13" r="0.46"/><circle class="cls-1" cx="187.46" cy="38.13" r="0.44"/><path class="cls-1" d="M186.53,38.54a.41.41,0,1,1,.41-.41A.41.41,0,0,1,186.53,38.54Z"/><path class="cls-1" d="M185.6,38.52a.39.39,0,0,1-.38-.39.38.38,0,0,1,.38-.38.39.39,0,0,1,.39.38A.4.4,0,0,1,185.6,38.52Z"/><path class="cls-1" d="M184.67,38.49a.36.36,0,1,1,0-.72.36.36,0,1,1,0,.72Z"/><path class="cls-1" d="M183.75,38.47a.34.34,0,1,1,0-.68.34.34,0,0,1,0,.68Z"/><path class="cls-1" d="M182.82,38.45a.32.32,0,0,1-.32-.32.32.32,0,0,1,.32-.32.33.33,0,0,1,.32.32A.32.32,0,0,1,182.82,38.45Z"/><circle class="cls-1" cx="181.89" cy="38.13" r="0.3"/><circle class="cls-1" cx="180.96" cy="38.13" r="0.28"/><circle class="cls-1" cx="194.41" cy="39.06" r="0.46"/><circle class="cls-1" cx="193.49" cy="39.06" r="0.46"/><circle class="cls-1" cx="192.56" cy="39.06" r="0.46"/><circle class="cls-1" cx="191.63" cy="39.06" r="0.46"/><circle class="cls-1" cx="190.7" cy="39.06" r="0.46"/><circle class="cls-1" cx="189.78" cy="39.06" r="0.46"/><circle class="cls-1" cx="188.85" cy="39.06" r="0.46"/><circle class="cls-1" cx="187.92" cy="39.06" r="0.46"/><circle class="cls-1" cx="186.99" cy="39.06" r="0.44"/><path class="cls-1" d="M186.06,39.47a.41.41,0,1,1,.42-.41A.41.41,0,0,1,186.06,39.47Z"/><path class="cls-1" d="M185.14,39.44a.38.38,0,0,1-.39-.38.39.39,0,1,1,.77,0A.38.38,0,0,1,185.14,39.44Z"/><path class="cls-1" d="M184.21,39.42a.36.36,0,1,1,.36-.36A.36.36,0,0,1,184.21,39.42Z"/><path class="cls-1" d="M183.28,39.4a.34.34,0,1,1,.34-.34A.34.34,0,0,1,183.28,39.4Z"/><path class="cls-1" d="M182.35,39.37a.32.32,0,0,1,0-.63.32.32,0,1,1,0,.63Z"/><circle class="cls-1" cx="181.43" cy="39.06" r="0.3"/><circle class="cls-1" cx="180.5" cy="39.06" r="0.28"/><circle class="cls-1" cx="193.95" cy="39.99" r="0.46"/><circle class="cls-1" cx="193.02" cy="39.99" r="0.46"/><circle class="cls-1" cx="192.09" cy="39.99" r="0.46"/><circle class="cls-1" cx="191.17" cy="39.99" r="0.46"/><circle class="cls-1" cx="190.24" cy="39.99" r="0.46"/><circle class="cls-1" cx="189.31" cy="39.99" r="0.46"/><circle class="cls-1" cx="188.38" cy="39.99" r="0.44"/><circle class="cls-1" cx="187.46" cy="39.99" r="0.42"/><circle class="cls-1" cx="186.53" cy="39.99" r="0.39"/><path class="cls-1" d="M185.6,40.35a.37.37,0,0,1,0-.73.37.37,0,1,1,0,.73Z"/><path class="cls-1" d="M184.67,40.33a.35.35,0,0,1,0-.69.35.35,0,1,1,0,.69Z"/><circle class="cls-1" cx="183.75" cy="39.99" r="0.32"/><circle class="cls-1" cx="182.82" cy="39.99" r="0.3"/><circle class="cls-1" cx="181.89" cy="39.99" r="0.28"/><circle class="cls-1" cx="180.96" cy="39.99" r="0.26"/><circle class="cls-1" cx="194.41" cy="40.91" r="0.46"/><circle class="cls-1" cx="193.49" cy="40.91" r="0.46"/><circle class="cls-1" cx="192.56" cy="40.91" r="0.46"/><circle class="cls-1" cx="191.63" cy="40.91" r="0.46"/><circle class="cls-1" cx="190.7" cy="40.91" r="0.46"/><circle class="cls-1" cx="189.78" cy="40.91" r="0.46"/><circle class="cls-1" cx="188.85" cy="40.91" r="0.46"/><circle class="cls-1" cx="187.92" cy="40.91" r="0.43"/><path class="cls-1" d="M187,41.31a.4.4,0,1,1,.4-.4A.4.4,0,0,1,187,41.31Z"/><path class="cls-1" d="M186.06,41.29a.38.38,0,1,1,.38-.38A.38.38,0,0,1,186.06,41.29Z"/><path class="cls-1" d="M185.14,41.26a.35.35,0,1,1,0-.69.35.35,0,0,1,0,.69Z"/><path class="cls-1" d="M184.21,41.24a.33.33,0,1,1,.32-.33A.32.32,0,0,1,184.21,41.24Z"/><circle class="cls-1" cx="183.28" cy="40.91" r="0.3"/><circle class="cls-1" cx="182.35" cy="40.91" r="0.28"/><circle class="cls-1" cx="181.43" cy="40.91" r="0.26"/><circle class="cls-1" cx="180.5" cy="40.91" r="0.24"/><circle class="cls-1" cx="193.95" cy="41.84" r="0.46"/><circle class="cls-1" cx="193.02" cy="41.84" r="0.46"/><circle class="cls-1" cx="192.09" cy="41.84" r="0.46"/><circle class="cls-1" cx="191.17" cy="41.84" r="0.46"/><circle class="cls-1" cx="190.24" cy="41.84" r="0.46"/><circle class="cls-1" cx="189.31" cy="41.84" r="0.44"/><circle class="cls-1" cx="188.38" cy="41.84" r="0.41"/><path class="cls-1" d="M187.46,42.22a.38.38,0,1,1,.38-.38A.38.38,0,0,1,187.46,42.22Z"/><path class="cls-1" d="M186.53,42.19a.34.34,0,0,1-.35-.35.35.35,0,0,1,.35-.35.35.35,0,0,1,.35.35A.35.35,0,0,1,186.53,42.19Z"/><path class="cls-1" d="M185.6,42.17a.33.33,0,1,1,.33-.33A.33.33,0,0,1,185.6,42.17Z"/><path class="cls-1" d="M184.67,42.14a.3.3,0,1,1,.31-.3A.3.3,0,0,1,184.67,42.14Z"/><circle class="cls-1" cx="183.75" cy="41.84" r="0.28"/><circle class="cls-1" cx="182.82" cy="41.84" r="0.26"/><circle class="cls-1" cx="181.89" cy="41.84" r="0.24"/><circle class="cls-1" cx="180.96" cy="41.84" r="0.22"/><circle class="cls-1" cx="194.41" cy="42.77" r="0.46"/><circle class="cls-1" cx="193.49" cy="42.77" r="0.46"/><circle class="cls-1" cx="192.56" cy="42.77" r="0.46"/><circle class="cls-1" cx="191.63" cy="42.77" r="0.46"/><circle class="cls-1" cx="190.7" cy="42.77" r="0.46"/><circle class="cls-1" cx="189.78" cy="42.77" r="0.45"/><circle class="cls-1" cx="188.85" cy="42.77" r="0.42"/><circle class="cls-1" cx="187.92" cy="42.77" r="0.39"/><path class="cls-1" d="M187,43.13a.36.36,0,0,1,0-.72.36.36,0,1,1,0,.72Z"/><circle class="cls-1" cx="186.06" cy="42.77" r="0.34"/><circle class="cls-1" cx="185.14" cy="42.77" r="0.31"/><circle class="cls-1" cx="184.21" cy="42.77" r="0.29"/><circle class="cls-1" cx="183.28" cy="42.77" r="0.26"/><circle class="cls-1" cx="182.35" cy="42.77" r="0.24"/><circle class="cls-1" cx="181.43" cy="42.77" r="0.22"/><circle class="cls-1" cx="180.5" cy="42.77" r="0.2"/><circle class="cls-1" cx="193.95" cy="43.7" r="0.46"/><circle class="cls-1" cx="193.02" cy="43.7" r="0.46"/><circle class="cls-1" cx="192.09" cy="43.7" r="0.46"/><circle class="cls-1" cx="191.17" cy="43.7" r="0.46"/><circle class="cls-1" cx="190.24" cy="43.7" r="0.43"/><circle class="cls-1" cx="189.31" cy="43.7" r="0.4"/><path class="cls-1" d="M188.38,44.07a.38.38,0,0,1,0-.75.38.38,0,1,1,0,.75Z"/><path class="cls-1" d="M187.46,44a.35.35,0,1,1,.34-.34A.34.34,0,0,1,187.46,44Z"/><circle class="cls-1" cx="186.53" cy="43.7" r="0.32"/><circle class="cls-1" cx="185.6" cy="43.7" r="0.29"/><circle class="cls-1" cx="184.67" cy="43.7" r="0.27"/><circle class="cls-1" cx="183.75" cy="43.7" r="0.25"/><circle class="cls-1" cx="182.82" cy="43.7" r="0.22"/><circle class="cls-1" cx="181.89" cy="43.7" r="0.2"/><circle class="cls-1" cx="180.96" cy="43.7" r="0.19"/><circle class="cls-1" cx="194.41" cy="44.62" r="0.46"/><circle class="cls-1" cx="193.49" cy="44.62" r="0.46"/><circle class="cls-1" cx="192.56" cy="44.62" r="0.46"/><circle class="cls-1" cx="191.63" cy="44.62" r="0.46"/><circle class="cls-1" cx="190.7" cy="44.62" r="0.45"/><circle class="cls-1" cx="189.78" cy="44.62" r="0.42"/><path class="cls-1" d="M188.85,45a.39.39,0,1,1,0-.77.39.39,0,1,1,0,.77Z"/><path class="cls-1" d="M187.92,45a.36.36,0,1,1,.36-.36A.36.36,0,0,1,187.92,45Z"/><circle class="cls-1" cx="186.99" cy="44.62" r="0.33"/><circle class="cls-1" cx="186.06" cy="44.62" r="0.31"/><circle class="cls-1" cx="185.14" cy="44.62" r="0.28"/><circle class="cls-1" cx="184.21" cy="44.62" r="0.25"/><circle class="cls-1" cx="183.28" cy="44.62" r="0.23"/><circle class="cls-1" cx="182.35" cy="44.62" r="0.21"/><circle class="cls-1" cx="181.43" cy="44.62" r="0.19"/><path class="cls-1" d="M180.5,44.79a.17.17,0,0,1-.17-.17.17.17,0,1,1,.34,0A.17.17,0,0,1,180.5,44.79Z"/><circle class="cls-1" cx="193.95" cy="45.55" r="0.46"/><circle class="cls-1" cx="193.02" cy="45.55" r="0.46"/><circle class="cls-1" cx="192.09" cy="45.55" r="0.46"/><circle class="cls-1" cx="191.17" cy="45.55" r="0.44"/><path class="cls-1" d="M190.24,46a.41.41,0,0,1-.41-.41.41.41,0,0,1,.41-.41.42.42,0,0,1,.41.41A.41.41,0,0,1,190.24,46Z"/><path class="cls-1" d="M189.31,45.93a.37.37,0,0,1-.37-.38.36.36,0,0,1,.37-.37.37.37,0,0,1,.38.37A.38.38,0,0,1,189.31,45.93Z"/><path class="cls-1" d="M188.38,45.9a.35.35,0,1,1,.35-.35A.35.35,0,0,1,188.38,45.9Z"/><circle class="cls-1" cx="187.46" cy="45.55" r="0.32"/><circle class="cls-1" cx="186.53" cy="45.55" r="0.29"/><circle class="cls-1" cx="185.6" cy="45.55" r="0.26"/><circle class="cls-1" cx="184.67" cy="45.55" r="0.24"/><circle class="cls-1" cx="183.75" cy="45.55" r="0.22"/><circle class="cls-1" cx="182.82" cy="45.55" r="0.2"/><path class="cls-1" d="M181.89,45.73a.17.17,0,0,1-.17-.18.16.16,0,0,1,.17-.17.17.17,0,0,1,.18.17A.18.18,0,0,1,181.89,45.73Z"/><circle class="cls-1" cx="180.96" cy="45.55" r="0.15"/><circle class="cls-1" cx="194.41" cy="46.48" r="0.46"/><circle class="cls-1" cx="193.49" cy="46.48" r="0.46"/><circle class="cls-1" cx="192.56" cy="46.48" r="0.46"/><circle class="cls-1" cx="191.63" cy="46.48" r="0.46"/><path class="cls-1" d="M190.7,46.9a.43.43,0,0,1,0-.85.43.43,0,1,1,0,.85Z"/><path class="cls-1" d="M189.78,46.87a.39.39,0,1,1,.39-.39A.39.39,0,0,1,189.78,46.87Z"/><path class="cls-1" d="M188.85,46.84a.36.36,0,1,1,0-.72.36.36,0,1,1,0,.72Z"/><path class="cls-1" d="M187.92,46.81a.34.34,0,1,1,.33-.33A.33.33,0,0,1,187.92,46.81Z"/><circle class="cls-1" cx="186.99" cy="46.48" r="0.31"/><circle class="cls-1" cx="186.06" cy="46.48" r="0.28"/><circle class="cls-1" cx="185.14" cy="46.48" r="0.25"/><circle class="cls-1" cx="184.21" cy="46.48" r="0.23"/><circle class="cls-1" cx="183.28" cy="46.48" r="0.21"/><path class="cls-1" d="M182.35,46.66a.18.18,0,0,1,0-.36.18.18,0,1,1,0,.36Z"/><path class="cls-1" d="M181.43,46.64a.16.16,0,1,1,.16-.16A.16.16,0,0,1,181.43,46.64Z"/><path class="cls-1" d="M180.5,46.62a.14.14,0,1,1,.14-.14A.14.14,0,0,1,180.5,46.62Z"/><circle class="cls-1" cx="193.95" cy="47.41" r="0.46"/><circle class="cls-1" cx="193.02" cy="47.41" r="0.46"/><circle class="cls-1" cx="192.09" cy="47.41" r="0.45"/><circle class="cls-1" cx="191.17" cy="47.41" r="0.41"/><path class="cls-1" d="M190.24,47.79a.39.39,0,1,1,.38-.38A.38.38,0,0,1,190.24,47.79Z"/><path class="cls-1" d="M189.31,47.76a.36.36,0,0,1,0-.71.36.36,0,0,1,0,.71Z"/><circle class="cls-1" cx="188.38" cy="47.41" r="0.32"/><circle class="cls-1" cx="187.46" cy="47.41" r="0.3"/><circle class="cls-1" cx="186.53" cy="47.41" r="0.27"/><circle class="cls-1" cx="185.6" cy="47.41" r="0.24"/><circle class="cls-1" cx="184.67" cy="47.41" r="0.22"/><circle class="cls-1" cx="183.75" cy="47.41" r="0.19"/><circle class="cls-1" cx="182.82" cy="47.41" r="0.17"/><path class="cls-1" d="M181.89,47.56a.15.15,0,0,1-.15-.15.15.15,0,1,1,.3,0A.15.15,0,0,1,181.89,47.56Z"/><path class="cls-1" d="M181,47.54a.13.13,0,0,1-.13-.13.13.13,0,0,1,.13-.13.12.12,0,0,1,.13.13A.13.13,0,0,1,181,47.54Z"/><path class="cls-1" d="M188.85,48.68a.35.35,0,0,1-.34-.35.34.34,0,1,1,.68,0A.35.35,0,0,1,188.85,48.68Z"/><circle class="cls-1" cx="187.92" cy="48.33" r="0.31"/><circle class="cls-1" cx="186.99" cy="48.33" r="0.29"/><circle class="cls-1" cx="186.06" cy="48.33" r="0.26"/><circle class="cls-1" cx="185.14" cy="48.33" r="0.23"/><circle class="cls-1" cx="184.21" cy="48.33" r="0.21"/><circle class="cls-1" cx="183.28" cy="48.33" r="0.19"/><path class="cls-1" d="M182.35,48.5a.17.17,0,0,1-.16-.17.16.16,0,0,1,.16-.16.17.17,0,0,1,.17.16A.18.18,0,0,1,182.35,48.5Z"/><path class="cls-1" d="M181.43,48.48a.15.15,0,0,1-.14-.15.14.14,0,0,1,.28,0A.15.15,0,0,1,181.43,48.48Z"/><path class="cls-1" d="M180.5,48.45a.12.12,0,0,1-.12-.12.12.12,0,0,1,.24,0A.12.12,0,0,1,180.5,48.45Z"/></g></mask></defs><title>logo</title><g class="cls-2"><path class="cls-3" d="M0,0H40.31V10.39H15.07v7.74H38.48v9.93H15.07v9.59H41v11H0Z"/></g><g class="cls-4"><path class="cls-5" d="M45.72,0H91.44V12H76.1V48.68h-15V12H45.72Z"/></g><g class="cls-6"><path class="cls-3" d="M98.21,0h40.31V10.39H113.29v7.74H136.7v9.93H113.29v9.59h26v11h-41Z"/></g><g class="cls-7"><path class="cls-3" d="M147.32,0h40.31V10.39H162.4v7.74h23.4v9.93H162.4v9.59h26v11h-41Z"/></g><path class="cls-3" d="M195.57,13.41h12.58v5.75a18.77,18.77,0,0,1,5.71-5,15,15,0,0,1,7-1.51q5.61,0,8.78,3.33t3.17,10.31V48.68H219.27V29.29c0-2.22-.41-3.78-1.23-4.7a4.37,4.37,0,0,0-3.45-1.38,4.89,4.89,0,0,0-4,1.86q-1.53,1.86-1.53,6.67V48.68H195.57Z"/><path class="cls-3" d="M280.07,34.4H253a8.82,8.82,0,0,0,1.76,4.85,6.44,6.44,0,0,0,5.12,2.29,7.58,7.58,0,0,0,3.78-1A8.9,8.9,0,0,0,266,38.32l13.31,1.22a19,19,0,0,1-7.37,7.63q-4.31,2.3-12.38,2.3-7,0-11-2a16.19,16.19,0,0,1-6.66-6.28,18.9,18.9,0,0,1-2.64-10.11q0-8.26,5.29-13.38t14.63-5.11q7.58,0,12,2.29a15.46,15.46,0,0,1,6.68,6.64q2.28,4.35,2.29,11.32Zm-13.75-6.48c-.26-2.61-1-4.48-2.11-5.61a6.61,6.61,0,0,0-9.64.87A9.31,9.31,0,0,0,253,27.92Z"/><path class="cls-3" d="M312.51,13.41h12.65V46.72l0,1.56a14.69,14.69,0,0,1-1.41,6.32A13.27,13.27,0,0,1,320,59.47a14.79,14.79,0,0,1-5.95,2.69,37.12,37.12,0,0,1-8.25.83q-10.62,0-14.59-3.19a10.41,10.41,0,0,1-4-8.53c0-.45,0-1,.07-1.8L300.46,51A4.28,4.28,0,0,0,302,53.49a6.45,6.45,0,0,0,3.75,1A5.67,5.67,0,0,0,310.1,53q1.44-1.56,1.44-5.45V42.17a14,14,0,0,1-4,3.42,14.22,14.22,0,0,1-6.74,1.66q-7.06,0-11.42-6.18-3.09-4.38-3.09-11.59,0-8.22,4-12.55a13.57,13.57,0,0,1,10.43-4.31A14.62,14.62,0,0,1,307.51,14a14.8,14.8,0,0,1,5,4.62Zm-12.72,17.1q0,3.82,1.63,5.66a5.76,5.76,0,0,0,8.51-.06q1.71-1.9,1.71-5.76a8.67,8.67,0,0,0-1.79-5.9,5.6,5.6,0,0,0-4.38-2,5.09,5.09,0,0,0-4.14,1.88C300.31,25.54,299.79,27.61,299.79,30.51Z"/><path class="cls-3" d="M334.69,13.41h12.65v5.78A13.63,13.63,0,0,1,351.11,14a7.92,7.92,0,0,1,4.79-1.41,14.28,14.28,0,0,1,6.55,1.86l-4.19,9.63a10.48,10.48,0,0,0-3.78-1,4.67,4.67,0,0,0-4.12,2.19q-2.1,3.09-2.09,11.56V48.68H334.69Z"/><path class="cls-3" d="M364.8,13.41h14.26l7.27,23.48,6.76-23.48h13.32l-14,37.68q-2.4,6.45-4.88,8.71Q384,63,376.82,63a77.87,77.87,0,0,1-9-.8l-1.06-9.43a21.31,21.31,0,0,0,6.5.93,6.31,6.31,0,0,0,3.86-1.1,8.3,8.3,0,0,0,2.51-3.92Z"/></svg>