<?xml version="1.0" encoding="UTF-8"?>
<svg width="114px" height="137px" viewBox="0 0 114 137" version="1.1" xmlns="http://www.w3.org/2000/svg" xmlns:xlink="http://www.w3.org/1999/xlink">
    <!-- Generator: Sketch 52.6 (67491) - http://www.bohemiancoding.com/sketch -->
    <title>government-buildings</title>
    <desc>Created with Sketch.</desc>
    <g id="Page-1" stroke="none" stroke-width="1" fill="none" fill-rule="evenodd">
        <g id="Apple-TV" transform="translate(-1190.000000, -2213.000000)" fill="#CD4545">
            <g id="government-buildings" transform="translate(1190.000000, 2213.000000)">
                <path d="M82,94 C80.8956139,94 80,94.8221644 80,95.8370733 L80,100.162927 C80,101.177591 80.8953473,102 82,102 C83.1046527,102 84,101.177836 84,100.162927 L84,95.8370733 C84,94.8221644 83.1049193,94 82,94 Z" id="Path"></path>
                <path d="M90,94 C88.8956139,94 88,94.8221644 88,95.8370733 L88,100.162927 C88,101.177591 88.8953473,102 90,102 C91.1046527,102 92,101.177836 92,100.162927 L92,95.8370733 C92,94.8221644 91.1049193,94 90,94 Z" id="Path"></path>
                <path d="M82,107 C80.8956139,107 80,107.822139 80,108.837017 L80,113.162983 C80,114.177616 80.8953473,115 82,115 C83.1046527,115 84,114.177861 84,113.162983 L84,108.837017 C84,107.822139 83.1049193,107 82,107 Z" id="Path"></path>
                <path d="M90,107 C88.8956139,107 88,107.822139 88,108.837017 L88,113.162983 C88,114.177616 88.8953473,115 90,115 C91.1046527,115 92,114.177861 92,113.162983 L92,108.837017 C92,107.822139 91.1049193,107 90,107 Z" id="Path"></path>
                <path d="M24,94 C22.8953473,94 22,94.8221644 22,95.8370733 L22,100.162927 C22,101.177591 22.8950807,102 24,102 C25.1046527,102 26,101.177836 26,100.162927 L26,95.8370733 C26,94.8221644 25.1049193,94 24,94 Z" id="Path"></path>
                <path d="M33,94 C31.8953473,94 31,94.8221644 31,95.8370733 L31,100.162927 C31,101.177346 31.8953473,102 33,102 C34.1046527,102 35,101.177836 35,100.162927 L35,95.8370733 C34.9997334,94.8221644 34.1046527,94 33,94 Z" id="Path"></path>
                <path d="M24,107 C22.8953473,107 22,107.822139 22,108.837017 L22,113.162983 C22,114.177616 22.8950807,115 24,115 C25.1046527,115 26,114.177861 26,113.162983 L26,108.837017 C26,107.822139 25.1049193,107 24,107 Z" id="Path"></path>
                <path d="M33,107 C31.8953473,107 31,107.822139 31,108.837017 L31,113.162983 C31,114.177616 31.8950807,115 33,115 C34.1046527,115 35,114.177861 35,113.162983 L35,108.837017 C34.9997334,107.822139 34.1046527,107 33,107 Z" id="Path"></path>
                <path d="M53,94 C51.8953473,94 51,94.8221644 51,95.8370733 L51,100.162927 C51,101.177591 51.8950807,102 53,102 C54.1046527,102 55,101.177836 55,100.162927 L55,95.8370733 C55,94.8221644 54.1046527,94 53,94 Z" id="Path"></path>
                <path d="M60,94 C58.8953473,94 58,94.8221644 58,95.8370733 L58,100.162927 C58,101.177346 58.8953473,102 60,102 C61.1046527,102 62,101.177836 62,100.162927 L62,95.8370733 C62,94.8221644 61.1049193,94 60,94 Z" id="Path"></path>
                <path d="M108.507005,125.760382 L98.9784736,125.760382 L98.9784736,115.319484 C98.9784736,114.211176 98.1005464,113.312381 97.0168018,113.312381 C95.9333187,113.312381 95.0551299,114.210908 95.0551299,115.319484 L95.0551299,125.760649 L80.5184642,125.760649 C80.6672698,125.251448 80.7499106,124.713081 80.7499106,124.154646 C80.7499106,121.484484 78.9184764,119.248066 76.4748206,118.678927 L76.4748206,87.3728246 L95.0553914,87.3728246 L95.0553914,105.953448 C95.0553914,107.062024 95.9333187,107.960551 97.0170633,107.960551 C98.1005464,107.960551 98.9787351,107.062292 98.9787351,105.953448 L98.9787351,85.3659889 L98.9787351,80.1471456 C99.0051488,80.1471456 99.3440805,80.1471456 99.3176668,80.1471456 C101.94308,80.1471456 104.04362,77.9792278 104.04362,75.3120093 C104.04362,69.1106192 104.050942,68.1259318 104.023221,67.1334846 C104.017206,66.1105335 103.530776,65.1432387 102.719275,64.5435961 L69.6543431,40.1257565 C66.6967979,37.941784 63.9359167,38.650866 62.4938878,38.5103875 L62.4938878,26.0281366 L80.7028367,26.0281366 C82.3216541,26.0281366 83.6389372,24.6806133 83.6389372,23.0240373 L83.6389372,8.46912641 C83.6389372,6.93617147 82.4199861,5.68898993 80.9214686,5.68898993 L62.4938878,5.68898993 L62.4938878,5.617279 C62.4938878,2.22572656 59.4429794,-0.723519275 55.7108078,0.157615414 C53.1264536,0.830306762 51.5086824,3.12398625 51.5086824,5.617279 L51.5086824,11.1756789 C51.5086824,12.284255 52.3866096,13.1827822 53.4703542,13.1827822 C54.5538373,13.1827822 55.4320261,12.2845226 55.4320261,11.1756789 L55.4320261,5.617279 C55.4320261,4.78618142 56.067,4.05060922 56.9645413,4.01528891 C57.8845735,3.99629086 58.5710671,4.75059353 58.5710671,5.617279 L58.5710671,7.69609327 C58.5710671,10.7951828 58.5710671,34.9930733 58.5710671,38.5101199 L55.4320261,38.5101199 L55.4320261,20.5414476 C55.4320261,19.4328716 54.5540988,18.5343443 53.4703542,18.5343443 C52.3868711,18.5343443 51.5086824,19.432604 51.5086824,20.5414476 L51.5086824,38.5098523 C49.522689,38.6765535 46.9100905,37.9112801 44.0935052,39.9919674 L11.677146,63.9311099 C10.6109233,64.7177895 9.97411875,65.9911937 9.97411875,67.3365764 C9.96575007,75.7457534 9.86611042,75.7639487 10.1665985,76.7486361 C11.2911404,80.4495088 14.9945446,80.1377803 15.023312,80.1471456 C15.023312,89.1556975 15.023312,114.974576 15.023312,125.760382 L5.49530365,125.760382 C2.39758293,125.760382 -0.0102443865,128.415024 0.00649298169,131.243325 C-0.142574203,134.192571 2.29271286,137 5.49530365,137 L108.507267,137 C111.535946,137 114,134.478879 114,131.380057 C113.999738,128.322175 111.568636,125.760382 108.507005,125.760382 Z M79.7155935,9.70292904 L79.7155935,22.0141975 L62.4938878,22.0141975 L62.4938878,9.70292904 L79.7155935,9.70292904 Z M76.8270899,124.154378 C76.8270899,125.039794 76.1230744,125.760114 75.2577001,125.760114 L66.6272332,125.760114 C65.7621205,125.760114 65.0578434,125.039794 65.0578434,124.154646 C65.0578434,123.269497 65.7621205,122.548909 66.6272332,122.548909 C68.2758639,122.548909 73.6017468,122.548909 75.2577001,122.548909 C76.1228129,122.548909 76.8270899,123.26923 76.8270899,124.154378 Z M61.3628078,125.760382 L58.2378889,125.760382 L58.2378889,110.01234 L65.4098512,110.01234 L65.4098512,118.673843 C62.3228528,119.391488 60.4568978,122.658349 61.3628078,125.760382 Z M47.142583,118.674111 L47.142583,110.012608 L54.3145452,110.012608 L54.3145452,125.760649 L51.1893648,125.760649 C52.1057357,122.623029 50.1872148,119.381587 47.142583,118.674111 Z M32.0337084,125.760382 L18.9469172,125.760382 L18.9469172,87.3728246 L36.0776135,87.3728246 L36.0776135,118.678927 C33.0280127,119.388545 31.1118456,122.605101 32.0337084,125.760382 Z M18.9469172,83.3588855 L18.9469172,80.1471456 L36.0776135,80.1471456 L36.0776135,83.3588855 L18.9469172,83.3588855 Z M37.294734,122.548909 C37.3216707,122.548909 45.949784,122.543023 46.0855136,122.557204 C46.8222193,122.633999 47.4114269,123.23605 47.4864836,123.99062 C47.5814158,124.936509 46.8525558,125.760382 45.9249394,125.760382 L37.2944725,125.760382 C36.4290982,125.760382 35.7248212,125.040062 35.7248212,124.154646 C35.7253442,123.26923 36.4293597,122.548909 37.294734,122.548909 Z M40.0006957,118.53497 C40.0006957,112.805856 40.0006957,84.8618717 40.0006957,80.1474131 L43.2197623,80.1474131 C43.2197623,86.1730044 43.2197623,101.759429 43.2197623,108.005504 L43.2197623,118.53497 L40.0006957,118.53497 Z M47.142583,105.998669 L47.142583,87.3728246 L65.4098512,87.3728246 L65.4098512,105.998669 C60.4893264,105.998669 50.0091188,105.998669 47.142583,105.998669 Z M47.142583,83.3588855 L47.142583,80.1471456 L65.4098512,80.1471456 L65.4098512,83.3588855 L47.142583,83.3588855 Z M69.3329333,118.53497 L69.3329333,108.005237 C69.3329333,101.735882 69.3329333,86.14919 69.3329333,80.1471456 L72.552,80.1471456 C72.552,84.8551823 72.552,112.818432 72.552,118.53497 L69.3329333,118.53497 Z M95.055653,83.3588855 L76.4750822,83.3588855 L76.4750822,80.1471456 L95.055653,80.1471456 L95.055653,83.3588855 Z M14.6799344,76.1332065 C14.2711765,76.1332065 13.9999788,75.843687 13.9121076,75.5547026 C13.8522193,75.3601733 13.8964164,75.3374292 13.8924935,72.9214665 L33.4618767,72.9214665 C34.5453597,72.9214665 35.4235485,72.0232068 35.4235485,70.9143632 C35.4235485,69.8060547 34.5456213,68.9072598 33.4618767,68.9072598 L13.8972009,68.9072598 C13.9215224,67.446551 13.8326052,67.2897502 13.9725191,67.1856623 C47.9689905,42.3900024 46.3245441,42.5237914 48.5754586,42.5237914 C54.5595907,42.5237914 59.0112076,42.5237914 64.7691238,42.5237914 C67.3827684,42.5237914 65.7098162,42.5278051 100.105631,67.563215 C100.105892,67.5902404 100.121584,68.9963633 100.120799,68.9067247 L42.616171,68.9067247 C41.5326879,68.9067247 40.6544991,69.8052519 40.6544991,70.913828 C40.6544991,72.0224041 41.5324264,72.9209314 42.616171,72.9209314 L100.120799,72.9209314 C100.109292,75.3938882 100.147736,75.3505405 100.084971,75.5560405 C99.9869,75.8782045 99.6939961,76.1326713 99.3174053,76.1326713 C80.3006169,76.1326713 61.4514636,76.1326713 38.0390238,76.1326713 C33.8808339,76.1332065 17.4682753,76.1332065 14.6799344,76.1332065 Z M108.507005,132.986061 L5.49530365,132.986061 C4.49236916,132.986061 3.73631086,132.026526 3.96828032,131.021502 C3.98580226,130.994745 4.24575451,129.774321 5.49530365,129.774321 C33.0180749,129.774321 91.5130844,129.774321 108.507267,129.774321 C109.291569,129.774321 110.017814,130.351754 110.076395,131.422067 C110.054427,132.288485 109.359042,132.986061 108.507005,132.986061 Z" id="Shape" fill-rule="nonzero"></path>
            </g>
        </g>
    </g>
</svg>